<?xml version="1.0" standalone="no"?>
<!DOCTYPE svg PUBLIC "-//W3C//DTD SVG 1.1//EN" "http://www.w3.org/Graphics/SVG/1.1/DTD/svg11.dtd" >
<svg>
<metadata>
Created by FontForge 20120731 at Sat Aug 25 19:05:02 2018
 By www-data
Generated by Fontographer 3.5
</metadata>
<defs>
<font id="Nowdance" horiz-adv-x="663" >
  <font-face 
    font-family="Nowdance"
    font-weight="5"
    font-stretch="normal"
    units-per-em="1000"
    panose-1="0 0 0 0 0 0 0 0 0 0"
    ascent="800"
    descent="-200"
    x-height="513"
    cap-height="700"
    bbox="-217 -230 1201 895"
    underline-thickness="0"
    underline-position="0"
    unicode-range="U+0020-F002"
  />
<missing-glyph horiz-adv-x="895" 
d="M55 0v895h785v-895h-785zM785 55v785h-675v-785h675z" />
    <glyph glyph-name=".notdef" horiz-adv-x="895" 
d="M55 0v895h785v-895h-785zM785 55v785h-675v-785h675z" />
    <glyph glyph-name=".null" horiz-adv-x="0" 
 />
    <glyph glyph-name="nonmarkingreturn" horiz-adv-x="340" 
 />
    <glyph glyph-name="space" unicode=" " horiz-adv-x="340" 
 />
    <glyph glyph-name="exclam" unicode="!" horiz-adv-x="248" 
d="M179 320q0 -32 -3 -74t-11 -110h-86l-6 78l-7 106v380h113v-380zM179 0h-113v94h113v-94z" />
    <glyph glyph-name="quotedbl" unicode="&#x22;" horiz-adv-x="372" 
d="M311 403h-93v297h93v-297zM151 403h-94v297h94v-297z" />
    <glyph glyph-name="numbersign" unicode="#" horiz-adv-x="745" 
d="M616 423h-100l-19 -146h92v-62h-102l-30 -215h-72l29 215h-120l-31 -215h-72l30 215h-101v62h110l22 146h-102v61h110l29 216h73l-29 -216h119l31 216h73l-31 -216h91v-61zM444 423h-122l-20 -146h122z" />
    <glyph glyph-name="dollar" unicode="$" 
d="M613 205q0 -75 -27 -104.5t-107 -29.5h-124v-113h-56v113h-248l-9 63l138 -13h119v200h-123q-73 0 -103.5 27.5t-30.5 106.5v54q0 72 28.5 103t105.5 31h123v106h56v-106h247l4 -63l-139 13h-112v-173h124q79 0 106.5 -26t27.5 -107v-82zM299 420v173h-110q-25 0 -37 -13
q-10 -13 -10 -45v-58q0 -35 5 -43q9 -14 42 -14h110zM514 178v87q0 34 -5 42q-9 14 -42 14h-112v-200h112q27 0 35 8q12 12 12 49z" />
    <glyph glyph-name="percent" unicode="%" horiz-adv-x="971" 
d="M909 74q0 -42 -15.5 -58t-66.5 -16h-193q-48 0 -65 14t-17 60v210q0 44 13.5 60t68.5 16h193q45 0 63.5 -15.5t18.5 -60.5v-210zM734 700l-435 -700h-63l435 700h63zM411 414q0 -42 -15.5 -58t-66.5 -16h-193q-48 0 -65 14t-17 60v210q0 44 13.5 60t68.5 16h193
q45 0 63.5 -15.5t18.5 -60.5v-210zM826 69v222q0 23 -23 23h-145l-15 -1q-5 -2 -8 -22v-222q0 -23 23 -23h145q12 0 16 3.5t7 19.5zM328 409v222q0 23 -23 23h-145l-15 -1q-5 -2 -8 -22v-222q0 -23 23 -23h145q12 0 16 3.5t7 19.5z" />
    <glyph glyph-name="ampersand" unicode="&#x26;" horiz-adv-x="745" 
d="M729 58l-5 -58h-106l-20 -1q-13 0 -24 6.5t-28 29.5l-56 75l-61 -90q-12 -20 -79 -20h-174q-118 0 -118 134v227q0 45 18.5 64.5t67.5 19.5h93l-66 84l-34 44q-28 40 -28 65q0 62 143 62h360l10 -69l-137 12h-216q-13 0 -20 -4t-9 -16q0 -10 4 -18.5t17 -23.5l55 -71
l113 -147l90 -120l75 99q9 12 12 30l4 38l-1 18l-1 14h52v-15l1 -21l-3 -57q0 -19 -12 -34l-91 -117l74 -97l24 -29q22 -22 38 -22zM455 154l-179 234h-57q-30 0 -39 -9t-9 -48v-217q0 -33 6 -42.5t42 -15.5h127q38 0 69 44z" />
    <glyph glyph-name="quotesingle" unicode="'" horiz-adv-x="250" 
d="M169 404h-93v296h93v-296z" />
    <glyph glyph-name="parenleft" unicode="(" horiz-adv-x="352" 
d="M315 643h-81q-29 0 -39 -8.5t-10 -48.5v-586q0 -31 12 -43.5t37 -12.5h79v-58h-85q-76 0 -105.5 27.5t-29.5 106.5v547q0 75 29 104t106 29h87v-57z" />
    <glyph glyph-name="parenright" unicode=")" horiz-adv-x="352" 
d="M256 20q0 -75 -29 -104q-27 -30 -107 -30h-86v58h81q28 0 38 10.5t10 45.5v586q0 31 -11 43q-9 14 -37 14h-79v57h84q78 0 107 -26q29 -24 29 -107v-547z" />
    <glyph glyph-name="asterisk" unicode="*" horiz-adv-x="683" 
d="M523 450l-34 -57l-133 96l19 -169h-69l16 169l-129 -104l-36 62l151 66l-154 65l36 58l129 -96l-13 160h64l-14 -163l133 96l31 -55l-146 -65z" />
    <glyph glyph-name="plus" unicode="+" horiz-adv-x="670" 
d="M592 215h-218v-215h-84v215h-218v83h218v215h84v-215h218v-83z" />
    <glyph glyph-name="comma" unicode="," horiz-adv-x="250" 
d="M179 5l-59 -59h-48l36 54h-42v94h113v-89z" />
    <glyph glyph-name="hyphen" unicode="-" horiz-adv-x="372" 
d="M328 219h-287v76h287v-76z" />
    <glyph glyph-name="period" unicode="." horiz-adv-x="250" 
d="M183 0h-113v94h113v-94z" />
    <glyph glyph-name="slash" unicode="/" horiz-adv-x="311" 
d="M362 700l-331 -700h-86l332 700h85z" />
    <glyph glyph-name="zero" unicode="0" horiz-adv-x="745" 
d="M691 134q0 -76 -27.5 -105t-107.5 -29h-375q-75 0 -105 27.5t-30 106.5v433q0 74 28.5 103.5t106.5 29.5h375q76 0 105.5 -26.5t29.5 -106.5v-433zM578 114v472q0 36 -5 44q-8 13 -42 13h-324q-30 0 -38.5 -9.5t-8.5 -47.5v-472q0 -36 4 -44q8 -14 43 -14h324
q27 0 37 11.5t10 46.5z" />
    <glyph glyph-name="one" unicode="1" horiz-adv-x="745" 
d="M451 0h-149l11 65q3 24 5 46t2 42v433h-73v51l131 63h55v-547l-1 -37l3 -47q3 -27 16 -69z" />
    <glyph glyph-name="two" unicode="2" horiz-adv-x="745" 
d="M687 513q0 -66 -10 -85q-13 -25 -68 -43l-399 -108q-25 -8 -31.5 -12.5t-9.5 -26.5v-182h377l79 3q18 0 34.5 2t25.5 4l-10 -65h-618v287q0 36 18 52t80 34l398 105q21 3 21 49v59q0 35 -5 43q-9 14 -43 14h-329l-139 -7l9 64h485q75 0 105 -26.5t30 -106.5v-54z" />
    <glyph glyph-name="three" unicode="3" horiz-adv-x="745" 
d="M676 134q0 -76 -27.5 -105t-106.5 -29h-472l-10 65q23 0 32 -2l107 -7h318q26 0 36.5 12.5t10.5 45.5v159v17q0 10 -2 18q-6 22 -45 22l-235 -1l-52 -7v72l44 -4l89 -2l154 -1q27 0 37 11.5t10 45.5v142q0 35 -5 43q-9 14 -42 14h-316l-139 -7l10 64h470
q77 0 105.5 -27.5t28.5 -105.5v-116q0 -48 -14.5 -63.5t-76.5 -25.5q28 0 47.5 -7.5t27.5 -19.5q16 -22 16 -97v-104z" />
    <glyph glyph-name="four" unicode="4" horiz-adv-x="745" 
d="M737 214h-104v-96q0 -37 2.5 -57t4.5 -28.5t10 -32.5h-139q16 54 16 118v96h-515v92l501 394h120v-405h104v-81zM527 295v348l-439 -346z" />
    <glyph glyph-name="five" unicode="5" horiz-adv-x="745" 
d="M700 134q0 -76 -29 -105t-107 -29h-492l-10 65q25 0 33 -2l105 -7h338q29 0 39 12t10 46v205q0 35 -5 43q-9 14 -44 14l-413 -1l-51 -7v332h613l8 -64l-32 2l-106 5h-377v-210h384q74 0 105 -27t31 -106v-166z" />
    <glyph glyph-name="six" unicode="6" horiz-adv-x="745" 
d="M691 134q0 -78 -20 -104q-24 -30 -95 -30h-390q-38 0 -63 6t-40 20q-30 29 -30 108v471q0 51 17 71q21 24 89 24h523l8 -64l-54 3l-84 4h-340q-30 0 -38.5 -7.5t-8.5 -49.5v-187q10 20 19 29q13 10 35 10h337q79 0 107 -26t28 -107v-171zM578 114v211q0 33 -6 44
q-10 13 -41 13h-319h-15q-18 0 -25 -10.5t-7 -46.5v-211q0 -28 3 -41t44 -17h319q27 0 37 11.5t10 46.5z" />
    <glyph glyph-name="seven" unicode="7" horiz-adv-x="745" 
d="M682 646q-34 -27 -68.5 -62t-75.5 -84q-48 -57 -87.5 -112t-76.5 -116q-83 -142 -114 -272h-122q66 188 151 319q101 160 280 324h-383l-138 -7l9 64h617z" />
    <glyph glyph-name="eight" unicode="8" horiz-adv-x="745" 
d="M695 134q0 -76 -27.5 -105t-106.5 -29h-370q-75 0 -104.5 27t-29.5 107v153q0 48 16.5 68.5t73.5 20.5q-56 12 -74 28q-16 18 -16 64v99q0 74 27 103.5t107 29.5h370q75 0 104.5 -26.5t29.5 -106.5v-99q0 -57 -11 -71q-14 -18 -71 -18q47 -6 65 -24q17 -15 17 -53v-168z
M583 460v126q0 35 -5 43q-9 14 -43 14h-318q-27 0 -37 -9t-10 -48v-125l-1 -24q0 -16 9 -25q11 -7 39 -7h318q27 0 37.5 11.5t10.5 43.5zM583 114v177v13q0 23 -6 31q-8 8 -42 13h-318q-28 0 -37.5 -9.5t-9.5 -47.5v-177q0 -36 4 -44q8 -14 43 -14h318q27 0 37.5 11.5
t10.5 46.5z" />
    <glyph glyph-name="nine" unicode="9" horiz-adv-x="745" 
d="M701 94q0 -56 -23.5 -75t-83.5 -19h-532l-7 65q23 0 32 -2l105 -7h347q29 0 39 12t10 46v192q-18 -45 -55 -45h-345q-75 0 -104.5 27t-29.5 106v173q0 79 21 106t94 27h396q75 0 105.5 -27t30.5 -106v-473zM588 375v211v14q0 24 -8 33.5t-41 9.5h-326q-26 0 -34 -6
q-8 -8 -13 -51v-211q0 -31 2 -36q6 -21 45 -21h326q30 0 39.5 11t9.5 46z" />
    <glyph glyph-name="colon" unicode=":" horiz-adv-x="250" 
d="M183 225h-113v94h113v-94zM183 0h-113v94h113v-94z" />
    <glyph glyph-name="semicolon" unicode=";" horiz-adv-x="250" 
d="M187 225h-113v94h113v-94zM187 5l-59 -59h-48l36 54h-42v94h113v-89z" />
    <glyph glyph-name="less" unicode="&#x3c;" horiz-adv-x="634" 
d="M560 -7l-492 218v69l492 219v-80l-392 -173l392 -174v-79z" />
    <glyph glyph-name="equal" unicode="=" horiz-adv-x="634" 
d="M560 307h-492v80h492v-80zM560 105h-492v79h492v-79z" />
    <glyph glyph-name="greater" unicode="&#x3e;" horiz-adv-x="634" 
d="M560 211l-492 -218v79l391 174l-391 173v80l492 -219v-69z" />
    <glyph glyph-name="question" unicode="?" 
d="M618 445q0 -55 -20 -78.5t-67 -23.5h-155q-28 0 -37.5 -7.5t-9.5 -48.5v-150h-113v194q0 32 17 47t67 15h159q27 0 37 11t10 47v142v19q0 23 -11.5 30t-35.5 7h-310l-138 -11l5 62h469q77 0 105 -28t28 -105v-122zM329 0h-113v94h113v-94z" />
    <glyph glyph-name="at" unicode="@" horiz-adv-x="893" 
d="M785 412q0 -99 -43 -166q-52 -79 -153 -79l-6 22l-11 -17q-8 -5 -39 -5h-194q-56 0 -76 19q-19 21 -19 74v55q0 52 16 71q20 23 79 23h207q21 0 27 7.5t6 32.5v5q0 22 -3 28q-6 9 -30 9h-216h-19t-21 -2q-21 0 -37 -5l4 43h294q51 0 72.5 -18t21.5 -76v-156q0 -21 13 -22
q24 0 52.5 46.5t28.5 102.5q0 97 -74 172q-82 82 -208 82q-123 0 -211.5 -92.5t-88.5 -227.5q0 -112 82 -197q89 -91 229 -91q46 0 70 6.5t52 31.5l68 1q-27 -37 -82.5 -63t-111.5 -26q-153 0 -257 101t-104 250q0 138 96 240q103 109 260 109q127 0 220 -71
q106 -82 106 -217zM579 242v132h-236q-19 0 -26 -5.5t-7 -34.5v-92q0 -15 6 -27.5t27 -12.5h203h12q12 0 17 9z" />
    <glyph glyph-name="A" unicode="A" horiz-adv-x="765" 
d="M776 0h-148v13l-3 20l-8 17l-77 164h-377l-58 -118l-25 -57q-6 -18 -6 -39h-93q29 32 51 75l281 581l-37 44h142l324 -650q3 -9 12 -21zM514 271l-164 332l-162 -332h326z" />
    <glyph glyph-name="B" unicode="B" horiz-adv-x="745" 
d="M691 136q0 -78 -32 -107t-124 -29h-487q2 7 7 61l3 49v481l-3 65q0 13 -2 25t-5 19h487q87 0 121.5 -27.5t34.5 -107.5v-114q0 -52 -21.5 -72.5t-74.5 -20.5q45 0 68 -17q28 -22 28 -79v-126zM578 447v139q0 36 -5 44q-8 13 -42 13h-360v-254h360q26 0 36.5 9.5
t10.5 48.5zM578 114v168q0 36 -5 44q-8 13 -42 13h-360v-283h360q27 0 37 11.5t10 46.5z" />
    <glyph glyph-name="C" unicode="C" horiz-adv-x="621" 
d="M599 70l-6 -70h-391q-88 0 -122 26t-34 110v429q0 79 33 107t123 28h381l7 -71q-8 3 -33 6.5t-61 3.5l-80 4h-209q-30 0 -38.5 -9.5t-8.5 -47.5v-472q0 -36 4 -44q8 -14 43 -14h241h11h47q19 3 27 4q17 0 32 2.5t34 7.5z" />
    <glyph glyph-name="D" unicode="D" horiz-adv-x="745" 
d="M691 136q0 -78 -32 -107t-124 -29h-486q9 41 9 110v481q0 71 -9 109h486q87 0 121.5 -27.5t34.5 -107.5v-429zM578 114v472q0 36 -5 44q-8 13 -42 13h-360v-587h360q27 0 37 11.5t10 46.5z" />
    <glyph glyph-name="E" unicode="E" horiz-adv-x="621" 
d="M598 65l-5 -65h-544q9 41 9 110v481q0 71 -9 109h544l5 -64l-54 3l-84 4h-289v-264h262l145 7v-72l-145 7h-262v-265h289q11 0 36 1t39 1q41 0 63 7z" />
    <glyph glyph-name="F" unicode="F" horiz-adv-x="599" 
d="M612 636l-32 2l-106 5h-303v-264h254l145 7v-72l-145 7h-254v-211q0 -71 10 -110h-132q9 41 9 110v481q0 71 -9 109h555z" />
    <glyph glyph-name="G" unicode="G" horiz-adv-x="745" 
d="M690 0h-100l-12 46q-6 -31 -14 -36q-15 -10 -73 -10h-298q-85 0 -116 24t-31 98v455q0 72 29.5 97.5t117.5 25.5h464l7 -66q-8 3 -33.5 6t-45.5 3l-66 6h-312q-30 0 -38.5 -9.5t-8.5 -46.5v-479q0 -36 4 -44q8 -14 43 -14h315q26 0 37 12.5t11 45.5v247h-273
q-44 0 -76 -13v69h469l-7 -109v-198q0 -74 7 -110z" />
    <glyph glyph-name="H" unicode="H" horiz-adv-x="765" 
d="M709 0h-133q11 42 11 110v218h-416v-218q0 -71 10 -110h-132q9 41 9 110v481q0 71 -9 109h132q-10 -43 -10 -109v-206h416v206q0 68 -11 109h133q-9 -41 -9 -109v-481q0 -68 9 -110z" />
    <glyph glyph-name="I" unicode="I" horiz-adv-x="269" 
d="M200 0h-133q4 16 7 45.5t3 64.5v481q0 70 -10 109h133q-10 -43 -10 -109v-481q0 -71 10 -110z" />
    <glyph glyph-name="J" unicode="J" horiz-adv-x="641" 
d="M585 700q-10 -43 -10 -109v-439q0 -93 -33 -125q-34 -28 -149 -28l-379 1l-12 73l38 -9l16 -3l15 -2l105 -3h237q28 0 39 15.5t11 66.5v453q0 68 -11 109h133z" />
    <glyph glyph-name="K" unicode="K" horiz-adv-x="704" 
d="M721 0h-142l-251 375l-157 -151v-114q0 -71 10 -110h-132q9 41 9 110v481q0 71 -9 109h132q-10 -43 -10 -109v-290l344 324l25 26q25 27 38 49h107l-93 -79l-185 -171z" />
    <glyph glyph-name="L" unicode="L" horiz-adv-x="641" 
d="M632 65l-6 -65h-570q4 19 7 48.5t3 61.5v481q0 63 -10 109h133q-10 -43 -10 -109v-535h316q10 0 34 1t38 1q38 0 65 7z" />
    <glyph glyph-name="M" unicode="M" horiz-adv-x="971" 
d="M917 700l-7 -82q0 -10 -1 -27.5t-4 -39.5v-441q0 -71 10 -110h-133q4 19 7 48.5t3 61.5v513l-282 -623h-108l-283 623l-2 -523l9 -100h-80q4 9 7 27.5t3 49.5l3 117v341q0 116 -10 165h156l282 -622l276 622h154z" />
    <glyph glyph-name="N" unicode="N" horiz-adv-x="765" 
d="M711 700l-6 -60q0 -39 -5 -89v-551h-144l-438 621l-2 -503l10 -118h-81q4 9 7 27.5t3 49.5l3 117v341q0 116 -10 165h144l445 -628l4 509l-10 119h80z" />
    <glyph glyph-name="O" unicode="O" horiz-adv-x="745" 
d="M691 134q0 -65 -31 -97q-37 -37 -116 -37h-351q-78 0 -112.5 32t-34.5 102v433q0 66 32 98q37 35 115 35h351q77 0 112 -33.5t35 -99.5v-433zM578 114v472q0 36 -5 44q-8 13 -42 13h-324q-30 0 -38.5 -9.5t-8.5 -47.5v-472q0 -36 4 -44q8 -14 43 -14h324q27 0 37 11.5
t10 46.5z" />
    <glyph glyph-name="P" unicode="P" horiz-adv-x="723" 
d="M701 398q0 -77 -33 -107q-17 -15 -46.5 -22t-77.5 -7h-373v-152q0 -71 10 -110h-132q9 41 9 110v481q0 71 -9 109h495q86 0 121.5 -26.5t35.5 -108.5v-167zM588 376v210v14q0 24 -8 33.5t-41 9.5h-368v-324h368q30 0 39.5 11t9.5 46z" />
    <glyph glyph-name="Q" unicode="Q" horiz-adv-x="745" 
d="M691 134q0 -65 -31 -97q-37 -37 -116 -37h-57l49 -86h-67l-49 86h-227q-78 0 -112.5 32t-34.5 102v433q0 66 32 98q37 35 115 35h351q77 0 112 -33.5t35 -99.5v-433zM578 114v472q0 36 -5 44q-8 13 -42 13h-324q-30 0 -38.5 -9.5t-8.5 -47.5v-472q0 -36 4 -44
q8 -14 43 -14h180l-64 102h70l59 -102h79q27 0 37 11.5t10 46.5z" />
    <glyph glyph-name="R" unicode="R" horiz-adv-x="745" 
d="M724 0h-130l-150 319h-273v-209q0 -71 10 -110h-132q9 41 9 110v481q0 71 -9 109h489q87 0 119 -25q37 -29 37 -110v-111q0 -76 -29 -106t-102 -30l56 -129l36 -72l28 -56q14 -25 41 -61zM582 433v153q0 35 -5 43q-9 14 -43 14h-363v-267h363q28 0 38 11t10 46z" />
    <glyph glyph-name="S" unicode="S" horiz-adv-x="704" 
d="M652 136q0 -75 -33 -107q-32 -29 -122 -29h-439l-7 65q23 0 32 -2l105 -7h304q27 0 37 12t10 46v136q0 33 -6 44q-10 13 -41 13h-292q-88 0 -122 26t-34 109v123q0 82 32 108.5t124 26.5h428l8 -64l-32 2l-106 5h-294q-26 0 -34 -6q-8 -8 -13 -51v-116q0 -36 8 -47
t39 -11h293q89 0 122 -27t33 -108v-141z" />
    <glyph glyph-name="T" unicode="T" horiz-adv-x="599" 
d="M594 632l-131 11h-109v-533q0 -74 11 -110h-134q4 16 7 45.5t3 64.5v533h-108l-132 -11l12 68h570z" />
    <glyph glyph-name="U" unicode="U" horiz-adv-x="745" 
d="M691 700l-6 -60q0 -39 -5 -89v-416q0 -78 -25 -106.5t-98 -28.5h-354q-82 0 -111 25q-34 29 -34 110v456q0 71 -9 109h132q-10 -43 -10 -109v-477q0 -39 6 -48.5t38 -9.5h358q28 0 38 11t10 47v467l-10 119h80z" />
    <glyph glyph-name="V" unicode="V" horiz-adv-x="683" 
d="M687 700l-42 -80l-235 -620h-136l-247 626q-11 34 -39 74h150l2 -32q2 -17 13 -41l219 -571l211 559l13 43q5 23 5 42h86z" />
    <glyph glyph-name="W" unicode="W" horiz-adv-x="992" 
d="M989 700l-16 -31l-10 -25l-165 -644h-132l-175 643l-163 -643h-135l-170 620l-29 80h142l-2 -25l-1 -21l3 -32l146 -560l165 638h138l170 -638l135 533l7 75l3 30h89z" />
    <glyph glyph-name="X" unicode="X" 
d="M672 0h-162l-47 83l-152 209l-146 -168l-39 -49q-19 -28 -45 -75h-98l76 82l217 257l-203 279l-66 82h157q12 -44 44 -83l142 -192l198 236l19 39h105l-50 -48l-239 -276l244 -325q18 -24 45 -51z" />
    <glyph glyph-name="Y" unicode="Y" 
d="M674 700l-23 -23l-21 -27l-244 -359v-181q0 -81 8 -110h-132q11 42 11 110v180l-221 313l-71 97h161q6 -41 12.5 -54.5t41.5 -56.5l163 -235l196 294l22 52h97z" />
    <glyph glyph-name="Z" unicode="Z" 
d="M657 700l-468 -644h307q11 0 35.5 1t38.5 1q41 0 63 7l-8 -65h-606l468 643h-288l-139 -7l10 64h587z" />
    <glyph glyph-name="bracketleft" unicode="[" horiz-adv-x="331" 
d="M282 -114h-188v814h188v-51h-96v-713h96v-50z" />
    <glyph glyph-name="backslash" unicode="\" horiz-adv-x="311" 
d="M362 0h-85l-332 700h86z" />
    <glyph glyph-name="bracketright" unicode="]" horiz-adv-x="331" 
d="M234 -114h-190v50h97v713h-97v51h190v-814z" />
    <glyph glyph-name="asciicircum" unicode="^" horiz-adv-x="670" 
d="M564 310h-80l-153 309l-152 -309h-80l195 390h74z" />
    <glyph glyph-name="underscore" unicode="_" horiz-adv-x="500" 
d="M502 -131h-502v53h502v-53z" />
    <glyph glyph-name="grave" unicode="`" horiz-adv-x="250" 
d="M223 569h-57l-150 153h83z" />
    <glyph glyph-name="a" unicode="a" 
d="M616 0h-89l-9 32q-10 -18 -23 -25t-47 -7h-277q-76 0 -106 27q-28 28 -28 107v78q0 73 27 103t107 30h296q27 0 37 10t10 48v6q0 21 -1.5 29t-6.5 14q-8 11 -39 11h-310q-69 0 -111 -9l9 59h417q78 0 107 -26q29 -24 29 -106v-271q0 -81 8 -110zM514 107v188h-338
q-26 0 -36 -7.5t-10 -49.5v-131q0 -34 8 -45.5t38 -11.5h291q26 0 36.5 10.5t10.5 46.5z" />
    <glyph glyph-name="b" unicode="b" 
d="M618 134q0 -73 -27.5 -103.5t-105.5 -30.5h-275q-40 0 -56 9t-16 36l-7 -45h-93l6 47l5 63v481q0 63 -10 109h103v-221q6 17 25 25.5t49 8.5h269q75 0 104 -27.5t29 -104.5v-247zM526 107v300v16q0 22 -6 30q-10 10 -41 10h-290q-27 0 -37 -9.5t-10 -46.5v-300
q0 -34 8 -45.5t39 -11.5h290q25 0 36 11t11 46z" />
    <glyph glyph-name="c" unicode="c" horiz-adv-x="599" 
d="M579 61l-7 -61h-389q-75 0 -104.5 27t-29.5 107v247q0 74 27 103t107 29h381l5 -59q-41 9 -111 9h-269q-27 0 -37 -9.5t-10 -46.5v-300q0 -34 8 -45.5t39 -11.5h280q76 0 110 11z" />
    <glyph glyph-name="d" unicode="d" 
d="M616 0h-90l-7 45q-8 -45 -73 -45h-275q-76 0 -106 27q-28 28 -28 107v247q0 72 27 102t107 30h269q47 0 55.5 -5t18.5 -49l2 132q0 70 -10 109h102v-590q0 -81 8 -110zM514 107v300v13q0 25 -8 34t-39 9h-291q-27 0 -36.5 -8.5t-9.5 -47.5v-300q0 -34 8 -45.5t38 -11.5
h291q26 0 36.5 10.5t10.5 46.5z" />
    <glyph glyph-name="e" unicode="e" 
d="M618 61l-10 -61h-437q-76 0 -106 27q-28 28 -28 107v247q0 72 27 102t107 30h314q75 0 104 -27.5t29 -104.5v-156h-488v-118q0 -34 8 -45.5t38 -11.5h332q76 0 110 11zM526 276v131v16q0 22 -6 30q-10 10 -41 10h-303q-27 0 -36.5 -8.5t-9.5 -47.5v-131h396z" />
    <glyph glyph-name="f" unicode="f" horiz-adv-x="454" 
d="M489 640q-39 9 -111 9h-130q-26 0 -38 -13q-10 -13 -10 -43v-80h264v-50h-264v-353q0 -71 10 -110h-113q4 16 7 45.5t3 64.5v353h-84v50h84v54q0 75 29 104t106 29h238z" />
    <glyph glyph-name="g" unicode="g" 
d="M616 513l-5 -37l-3 -71v-467q0 -75 -29 -103q-27 -29 -107 -29h-412l-6 59q38 -9 110 -9h303q27 0 37 10.5t10 45.5v120q-13 -19 -23.5 -25.5t-43.5 -6.5h-276q-76 0 -106 27q-28 28 -28 107v247q0 72 27 102t107 30h267q21 0 29.5 -1t23 -8t20.5 -34l9 43h96zM514 107
v300v13q0 25 -8 34t-39 9h-291q-27 0 -36.5 -8.5t-9.5 -47.5v-300q0 -34 8 -45.5t38 -11.5h291q26 0 36.5 10.5t10.5 46.5z" />
    <glyph glyph-name="h" unicode="h" horiz-adv-x="683" 
d="M636 0h-112q4 16 7 45.5t3 64.5v297v13q0 23 -7.5 33t-39.5 10h-298q-27 0 -37 -9.5t-10 -46.5v-297q0 -71 10 -110h-113q4 19 7 48.5t3 61.5v481q0 63 -10 109h103v-221q9 21 22 27.5t41 6.5h287q76 0 105.5 -27t29.5 -105v-271q0 -68 9 -110z" />
    <glyph glyph-name="i" unicode="i" horiz-adv-x="228" 
d="M160 577h-94v74h94v-74zM169 0h-113q4 19 7 48.5t3 61.5v295q0 65 -10 108h104v-403q0 -72 9 -110z" />
    <glyph glyph-name="j" unicode="j" horiz-adv-x="228" 
d="M164 577h-93v74h93v-74zM164 -62q0 -75 -29 -103q-27 -29 -106 -29h-238l-8 61l139 -11h101q27 0 37.5 12t10.5 44v493q0 69 -11 108h104v-575z" />
    <glyph glyph-name="k" unicode="k" horiz-adv-x="621" 
d="M641 0h-131l-255 284l-113 -76v-98q0 -71 10 -110h-113q4 19 7 48.5t3 61.5v481q0 63 -10 109h103v-430l271 188l29 23q32 25 38 32h116q-83 -48 -157 -101l-109 -75l255 -285l24 -24z" />
    <glyph glyph-name="l" unicode="l" horiz-adv-x="228" 
d="M169 0h-113q4 19 7 48.5t3 61.5v481q0 63 -10 109h104v-590q0 -72 9 -110z" />
    <glyph glyph-name="m" unicode="m" horiz-adv-x="1076" 
d="M1027 0h-112q4 16 7 45.5t3 64.5v297v13q0 23 -7.5 33t-40.5 10h-250q-27 0 -37.5 -10t-10.5 -46v-297q0 -70 11 -110h-113q4 16 7 45.5t3 64.5v297v13q0 23 -7.5 33t-40.5 10h-250q-27 0 -37 -9.5t-10 -46.5v-297q0 -71 10 -110h-113q4 19 7 48.5t3 61.5v295
q0 65 -10 108h103v-36l16 18q18 18 33 18h295q48 0 64 -9.5t25 -40.5q12 32 26 41t56 9h183q100 0 136 -29q42 -33 42 -125v-249q0 -68 9 -110z" />
    <glyph glyph-name="n" unicode="n" horiz-adv-x="683" 
d="M636 0h-112q4 16 7 45.5t3 64.5v297v13q0 23 -7.5 33t-39.5 10h-298q-27 0 -37 -9.5t-10 -46.5v-297q0 -71 10 -110h-113q4 19 7 48.5t3 61.5v295q0 65 -10 108h107v-36l21 26q12 10 38 10h287q76 0 105.5 -27t29.5 -105v-271q0 -68 9 -110z" />
    <glyph glyph-name="o" unicode="o" 
d="M618 134q0 -73 -27.5 -103.5t-105.5 -30.5h-314q-76 0 -106 27q-28 28 -28 107v247q0 72 27 102t107 30h314q75 0 104 -27.5t29 -104.5v-247zM526 107v300v16q0 22 -6 30q-10 10 -41 10h-303q-27 0 -36.5 -8.5t-9.5 -47.5v-300q0 -34 8 -45.5t38 -11.5h303q25 0 36 11
t11 46z" />
    <glyph glyph-name="p" unicode="p" 
d="M618 134q0 -75 -26.5 -104.5t-103.5 -29.5h-272q-31 0 -48.5 8.5t-23.5 26.5l-2 -121q0 -71 10 -108h-113q4 19 7 48.5t3 59.5v491q0 65 -10 108h92l5 -43q9 43 74 43h271q77 0 107 -27t30 -105v-247zM526 107v300v16q0 22 -6 30q-10 10 -41 10h-290q-27 0 -37 -9.5
t-10 -46.5v-300q0 -34 8 -45.5t39 -11.5h290q25 0 36 11t11 46z" />
    <glyph glyph-name="q" unicode="q" 
d="M616 -194h-112q4 19 7 48.5t3 59.5v110q-13 -13 -27 -20q-8 -2 -19 -3t-34 -1h-263q-76 0 -106 27q-28 28 -28 107v247q0 72 27 102t107 30h269q30 0 47.5 -8.5t26.5 -34.5l14 43h88q-8 -42 -8 -108v-491q0 -79 8 -108zM514 107v300v13q0 25 -8 34t-39 9h-291
q-27 0 -36.5 -8.5t-9.5 -47.5v-300q0 -34 8 -45.5t38 -11.5h291q26 0 36.5 10.5t10.5 46.5z" />
    <glyph glyph-name="r" unicode="r" horiz-adv-x="413" 
d="M410 513l-5 -77l-63 6l-75 7h-78q-27 0 -37 -9.5t-10 -48.5v-281q0 -71 10 -110h-113q4 19 7 48.5t3 61.5v295q0 65 -10 108h93l4 -48q13 26 22 35q16 13 47 13h205z" />
    <glyph glyph-name="s" unicode="s" horiz-adv-x="621" 
d="M581 88q0 -44 -28.5 -66t-97.5 -22h-413l-7 61q16 -5 43 -8t67 -3h304q27 0 37.5 10.5t10.5 46.5v61q0 35 -5 43q-9 14 -43 14h-281q-75 0 -104.5 27t-29.5 107v22q0 74 27 103t107 29h403l10 -59q-41 9 -111 9h-297q-29 0 -36 -7q-11 -11 -11 -49v-35q0 -29 2 -35
q6 -22 45 -22h273q76 0 105.5 -27.5t29.5 -105.5v-94z" />
    <glyph glyph-name="t" unicode="t" horiz-adv-x="496" 
d="M483 61l-9 -61h-235q-38 0 -63 6t-40 20q-32 29 -32 108v329h-81v50h81v103l93 17v-120h258v-50h-258v-356q0 -33 9 -45t38 -12h128q75 0 111 11z" />
    <glyph glyph-name="u" unicode="u" horiz-adv-x="683" 
d="M636 0h-92l-6 38q-6 -14 -12 -22q-14 -16 -47 -16h-296q-75 0 -104.5 27t-29.5 107v271q0 65 -10 108h103v-406q0 -34 8 -45.5t39 -11.5h298q25 0 36 11t11 46v298q0 71 -10 108h103v-403q0 -68 9 -110z" />
    <glyph glyph-name="v" unicode="v" horiz-adv-x="641" 
d="M658 513l-26 -28q-31 -37 -48 -70l-222 -415h-119l-232 455l-35 58h118l9 -33q9 -30 15 -43l202 -393l202 371q27 50 35 98h101z" />
    <glyph glyph-name="w" unicode="w" horiz-adv-x="848" 
d="M848 513l-10 -13l-30 -75l-127 -425h-104l-151 475l-147 -475h-107l-158 477l-22 36h120l2 -45l129 -402l140 447h117l146 -447l110 367q3 10 6.5 28t7.5 52h78z" />
    <glyph glyph-name="x" unicode="x" horiz-adv-x="579" 
d="M585 0h-145l-15 27q-16 29 -22 35l-127 146l-165 -177l-18 -31h-105l16 12q14 11 23 20l28 26l185 192l-235 263h134l13 -21l18 -21l132 -156l162 167q7 7 20 31h93l-38 -33l-201 -207l186 -214l27 -27z" />
    <glyph glyph-name="y" unicode="y" horiz-adv-x="683" 
d="M626 -62q0 -74 -27.5 -103t-107.5 -29h-429l-7 59q38 -9 110 -9h321q27 0 37 10.5t10 45.5v105q-14 -17 -47 -17h-303q-77 0 -105.5 28t-28.5 106v271q0 65 -10 108h103v-406q0 -34 8 -45.5t39 -11.5h297q26 0 36.5 10.5t10.5 46.5v298q0 65 -10 108h103v-575z" />
    <glyph glyph-name="z" unicode="z" horiz-adv-x="621" 
d="M598 61l-5 -61h-576l419 463h-294q-69 0 -110 -9l7 59h556l-419 -463h311q75 0 111 11z" />
    <glyph glyph-name="braceleft" unicode="{" horiz-adv-x="333" 
d="M290 -109h-63q-69 0 -98.5 27t-29.5 101v136q0 42 -24.5 71t-61.5 29v55q32 0 58 24q28 28 28 72v136q0 71 28 99t100 28h63v-54h-58q-26 0 -35.5 -8.5t-9.5 -46.5v-168q0 -39 -25.5 -71.5t-65.5 -38.5q91 -21 91 -113v-169q0 -32 8 -43t37 -11h58v-55z" />
    <glyph glyph-name="bar" unicode="|" horiz-adv-x="235" 
d="M156 0h-80v669h80v-669z" />
    <glyph glyph-name="braceright" unicode="}" horiz-adv-x="333" 
d="M317 251q-35 0 -61 -26t-26 -70v-136q0 -71 -27.5 -99.5t-99.5 -28.5h-63v55h57q27 0 36.5 9.5t9.5 44.5v168q0 39 24.5 71.5t66.5 38.5q-51 11 -73 44q-18 27 -18 69v169q0 34 -5 42q-8 13 -41 13h-57v54h63q73 0 99 -26q28 -25 28 -101v-136q0 -44 24 -74
q24 -27 63 -27v-54z" />
    <glyph glyph-name="asciitilde" unicode="~" horiz-adv-x="670" 
d="M569 271q-40 -52 -64.5 -69.5t-64.5 -17.5q-26 0 -109 35t-113 35q-27 0 -48.5 -18.5t-37.5 -56.5l-37 64q23 43 51.5 65t75.5 22q43 0 91 -21q108 -48 128 -48q33 0 62 33l29 41z" />
    <glyph glyph-name="quotesinglbase" unicode="&#x201a;" horiz-adv-x="248" 
d="M179 0l-53 -56h-51l36 56h-45v94h113v-94z" />
    <glyph glyph-name="florin" unicode="&#x192;" horiz-adv-x="558" 
d="M553 620l-37 11q-42 12 -56 12q-23 0 -38.5 -8t-26.5 -40l-46 -178h140v-56h-156l-115 -426q-23 -88 -55.5 -108.5t-137.5 -20.5h-82l-11 79q43 -23 87 -23q33 0 51 12t33 53l119 434h-109v56h125l40 153q26 89 46.5 109.5t87.5 20.5h134z" />
    <glyph glyph-name="quotedblbase" unicode="&#x201e;" horiz-adv-x="413" 
d="M342 0l-52 -56h-51l36 56h-45v94h112v-94zM179 0l-53 -56h-51l36 56h-45v94h113v-94z" />
    <glyph glyph-name="ellipsis" unicode="&#x2026;" horiz-adv-x="1011" 
d="M908 0h-114v94h114v-94zM569 0h-112v94h112v-94zM231 0h-112v94h112v-94z" />
    <glyph glyph-name="dagger" unicode="&#x2020;" horiz-adv-x="683" 
d="M579 367h-193v-561h-94v561h-195v68h195v265h94v-265h193v-68z" />
    <glyph glyph-name="daggerdbl" unicode="&#x2021;" horiz-adv-x="683" 
d="M573 48h-187v-242h-94v242h-188v68h188v306h-188v67h188v211h94v-211h187v-67h-187v-306h187v-68z" />
    <glyph glyph-name="circumflex" unicode="&#x2c6;" horiz-adv-x="300" 
d="M301 603h-72l-80 102l-81 -102h-71l114 143h75z" />
    <glyph glyph-name="perthousand" unicode="&#x2030;" horiz-adv-x="1241" 
d="M1201 74q0 -42 -15.5 -58t-66.5 -16h-163q-48 0 -65 14t-17 60v210q0 44 13.5 60t68.5 16h163q45 0 63.5 -15.5t18.5 -60.5v-210zM809 74q0 -42 -15.5 -58t-66.5 -16h-163q-48 0 -65 14t-17 60v210q0 44 13.5 60t68.5 16h163q45 0 63.5 -15.5t18.5 -60.5v-210zM664 700
l-435 -700h-63l435 700h63zM361 414q0 -42 -15.5 -58t-66.5 -16h-173q-48 0 -65 14t-17 60v210q0 44 13.5 60t68.5 16h173q45 0 63.5 -15.5t18.5 -60.5v-210zM1118 69v222q0 23 -23 23h-115l-15 -1q-5 -2 -8 -22v-222q0 -23 23 -23h115q12 0 16 3.5t7 19.5zM726 69v222
q0 23 -23 23h-115l-15 -1q-5 -2 -8 -22v-222q0 -23 23 -23h115q12 0 16 3.5t7 19.5zM278 409v222q0 23 -23 23h-125l-15 -1q-5 -2 -8 -22v-222q0 -23 23 -23h125q12 0 16 3.5t7 19.5z" />
    <glyph glyph-name="Scaron" unicode="&#x160;" horiz-adv-x="704" 
d="M652 136q0 -75 -33 -107q-32 -29 -122 -29h-439l-7 65q23 0 32 -2l105 -7h304q27 0 37 12t10 46v136q0 33 -6 44q-10 13 -41 13h-292q-88 0 -122 26t-34 109v123q0 82 32 108.5t124 26.5h428l8 -64l-32 2l-106 5h-294q-26 0 -34 -6q-8 -8 -13 -51v-116q0 -36 8 -47
t39 -11h293q89 0 122 -27t33 -108v-141zM508 877l-125 -153h-75l-124 153h71l91 -113l90 113h72z" />
    <glyph glyph-name="guilsinglleft" unicode="&#x2039;" horiz-adv-x="331" 
d="M253 61h-71l-107 196l107 197h71l-108 -197z" />
    <glyph glyph-name="OE" unicode="&#x152;" horiz-adv-x="1117" 
d="M1088 65l-5 -65h-882q-79 0 -112.5 32t-33.5 102v433q0 66 33.5 99.5t112.5 33.5h882l5 -64l-32 2l-106 5h-266v-264h241l143 7v-72l-143 7h-241v-265h266l83 4q40 0 55 5zM571 114v472q0 35 -5 43q-9 14 -43 14h-308q-28 0 -36 -8t-13 -49v-472q0 -35 7 -44t42 -14h308
q27 0 37.5 11.5t10.5 46.5z" />
    <glyph glyph-name="quoteleft" unicode="&#x2018;" horiz-adv-x="250" 
d="M179 549h-113v94l53 57h51l-35 -57h44v-94z" />
    <glyph glyph-name="quoteright" unicode="&#x2019;" horiz-adv-x="250" 
d="M179 605l-53 -56h-51l36 56h-45v95h113v-95z" />
    <glyph glyph-name="quotedblleft" unicode="&#x201c;" horiz-adv-x="413" 
d="M342 549h-112v94l52 57h52l-36 -57h44v-94zM179 549h-113v94l53 57h51l-35 -57h44v-94z" />
    <glyph glyph-name="quotedblright" unicode="&#x201d;" horiz-adv-x="413" 
d="M342 605l-52 -56h-51l36 56h-45v95h112v-95zM179 605l-53 -56h-51l36 56h-45v95h113v-95z" />
    <glyph glyph-name="bullet" unicode="&#x2022;" horiz-adv-x="558" 
d="M453 350q0 -72 -48.5 -123.5t-128.5 -51.5q-75 0 -126 50.5t-51 124.5q0 73 49.5 124t127.5 51q72 0 124.5 -50.5t52.5 -124.5z" />
    <glyph glyph-name="endash" unicode="&#x2013;" horiz-adv-x="558" 
d="M553 226h-553v62h553v-62z" />
    <glyph glyph-name="emdash" unicode="&#x2014;" horiz-adv-x="1117" 
d="M1105 226h-1105v62h1105v-62z" />
    <glyph glyph-name="tilde" unicode="&#x2dc;" horiz-adv-x="300" 
d="M311 719q0 -19 -5.5 -33.5t-18.5 -29.5q-25 -31 -66 -31q-4 0 -21 4.5t-44 12.5l-55 18q-20 0 -29 -5.5t-25 -30.5h-40q3 29 12 44q24 44 84 44q13 0 60.5 -18.5t52.5 -18.5q25 0 36 8.5t18 35.5h41z" />
    <glyph glyph-name="trademark" unicode="&#x2122;" horiz-adv-x="1105" 
d="M947 701l-6 -82v-243l1 -32q0 -16 4 -28h-73q6 23 6 60v282l-155 -342h-59l-157 342l-1 -288l6 -54h-44l4 39l4 68v187v20v15q-2 10 -2 15q0 21 -5 41h86l155 -342l152 342h84zM442 663l-71 5h-60v-293v-24q0 -21 5 -36h-73q6 23 6 60v293h-60l-73 -5l7 37h313z" />
    <glyph glyph-name="scaron" unicode="&#x161;" horiz-adv-x="621" 
d="M581 88q0 -44 -28.5 -66t-97.5 -22h-413l-7 61q16 -5 43 -8t67 -3h304q27 0 37.5 10.5t10.5 46.5v61q0 35 -5 43q-9 14 -43 14h-281q-75 0 -104.5 27t-29.5 107v22q0 74 27 103t107 29h403l10 -59q-41 9 -111 9h-297q-29 0 -36 -7q-11 -11 -11 -49v-35q0 -29 2 -35
q6 -22 45 -22h273q76 0 105.5 -27.5t29.5 -105.5v-94zM473 719l-125 -153h-75l-124 153h71l91 -113l90 113h72z" />
    <glyph glyph-name="guilsinglright" unicode="&#x203a;" horiz-adv-x="331" 
d="M253 257l-108 -196h-70l107 196l-107 197h70z" />
    <glyph glyph-name="oe" unicode="&#x153;" horiz-adv-x="1117" 
d="M1079 61l-12 -61h-896q-76 0 -106 27q-28 28 -28 107v247q0 72 27 102t107 30h768q76 0 106 -27t30 -105v-156h-473v-118q0 -35 7.5 -46t39.5 -11h319q75 0 111 11zM982 276v131v20q0 20 -8 28t-39 8h-286q-30 0 -38.5 -8.5t-8.5 -47.5v-131h380zM508 107v300l1 24
q0 16 -9.5 24t-38.5 8h-285q-27 0 -36.5 -8.5t-9.5 -47.5v-300q0 -34 8 -45.5t38 -11.5h285q27 0 37 10t10 47z" />
    <glyph glyph-name="Ydieresis" unicode="&#x178;" 
d="M674 700l-23 -23l-21 -27l-244 -359v-181q0 -81 8 -110h-132q11 42 11 110v180l-221 313l-71 97h161q6 -41 12.5 -54.5t41.5 -56.5l163 -235l196 294l22 52h97zM456 755h-70v99h70v-99zM294 755h-70v99h70v-99z" />
    <glyph glyph-name="nonbreakingspace" unicode="&#xa0;" horiz-adv-x="400" 
 />
    <glyph glyph-name="exclamdown" unicode="&#xa1;" horiz-adv-x="248" 
d="M179 420h-113v93h113v-93zM179 -186h-113v379l13 186h86l14 -186v-379z" />
    <glyph glyph-name="cent" unicode="&#xa2;" horiz-adv-x="517" 
d="M469 185l-4 -50h-154v-114h-51v114h-105q-45 0 -63 17.5t-18 61.5v282q0 43 18 61t63 18h105v98h51v-98h154l4 -57l-138 11h-112q-30 0 -39 -9.5t-9 -46.5v-236q0 -34 5 -42q9 -14 43 -14h174h12h35z" />
    <glyph glyph-name="sterling" unicode="&#xa3;" horiz-adv-x="745" 
d="M691 134q0 -76 -27.5 -105t-107.5 -29h-513v53q106 11 156 53q43 35 43 85q0 34 -19 62q-6 20 -22 36l-32 35h-153v61h99q-61 40 -61 94v88q0 74 27 103.5t107 29.5h368q76 0 105.5 -26.5t29.5 -106.5v-61h-113v80q0 36 -5 44q-8 13 -42 13h-318q-26 0 -38 -13
q-10 -13 -10 -44v-78q0 -27 28 -58l63 -65h348v-61h-301q18 -18 35 -50.5t17 -65.5q0 -59 -46 -102q-39 -36 -91 -47l313 -3q27 0 37 11.5t10 46.5v101h113v-81z" />
    <glyph glyph-name="currency" unicode="&#xa4;" horiz-adv-x="745" 
d="M649 127l-56 -56l-64 62q-67 -55 -160 -55q-90 0 -164 55l-61 -62l-57 56l63 62q-56 71 -56 161q0 47 13 85t43 77l-63 61l57 55l61 -60q18 11 37 20.5t38 16.5q48 16 89 16q84 0 159 -51l65 58l56 -55l-61 -61q24 -27 39 -70q5 -12 10.5 -36t5.5 -56q0 -59 -12.5 -91
t-42.5 -71zM550 350q0 71 -53 125t-128 54q-76 0 -129.5 -52t-53.5 -127q0 -73 54 -126.5t129 -53.5q73 0 127 53t54 127z" />
    <glyph glyph-name="yen" unicode="&#xa5;" horiz-adv-x="745" 
d="M715 700l-44 -50l-149 -217h132v-61h-174l-50 -75h224v-61h-228v-126q0 -68 9 -110h-133q11 38 11 110v126h-222v61h217l-52 75h-165v61h121l-190 267h160l6 -27q2 -9 8 -18q2 -5 16 -27.5t40 -60.5l96 -140l51 -73l197 294l15 37l6 15h98z" />
    <glyph glyph-name="brokenbar" unicode="&#xa6;" horiz-adv-x="248" 
d="M165 437h-85v263h85v-263zM165 0h-85v262h85v-262z" />
    <glyph glyph-name="section" unicode="&#xa7;" horiz-adv-x="683" 
d="M635 -62q0 -75 -27.5 -103.5t-107.5 -28.5h-428l-17 76q31 -11 68 -19q19 -3 35.5 -5t33.5 -2h304q27 0 37 10.5t10 45.5v96q0 34 -8.5 46t-38.5 12h-322q-75 0 -104.5 27t-29.5 106v99q0 54 10 74q14 27 54 27q-40 6 -52 23.5t-12 82.5v62q0 72 26 101q30 32 108 32h433
l13 -77q-27 11 -56.5 16.5t-46.5 7.5t-34 2h-303q-47 0 -47 -56v-80q0 -33 5 -41q9 -15 42 -15h320q78 0 106.5 -27.5t28.5 -105.5v-103q0 -61 -10.5 -78t-51.5 -22q39 -6 50.5 -26.5t11.5 -93.5v-63zM543 210v103q0 34 -5 42q-9 14 -42 14h-316q-27 0 -37 -9.5t-10 -46.5
v-103q0 -36 4 -43q8 -14 43 -14h316q27 0 37 12t10 45z" />
    <glyph glyph-name="dieresis" unicode="&#xa8;" horiz-adv-x="300" 
d="M265 642h-70v101h70v-101zM103 642h-70v101h70v-101z" />
    <glyph glyph-name="copyright" unicode="&#xa9;" horiz-adv-x="893" 
d="M802 350q0 -148 -104 -249q-52 -51 -114.5 -76t-141.5 -25q-150 0 -255 98.5t-105 251.5q0 149 103.5 249.5t256.5 100.5q148 0 254 -100t106 -250zM722 350q0 125 -79 207t-201 82q-118 0 -198.5 -81.5t-80.5 -207.5q0 -108 65 -189q78 -99 214 -99q119 0 199.5 82
t80.5 206zM575 209l-3 -35h-196q-44 0 -59 11q-19 14 -19 57v214q0 40 17 54t61 14h190l4 -36q-14 7 -33 7l-159 1l-16 -1q-8 0 -8 -28v-236q0 -15 4 -21.5t20 -7.5h120q27 0 40 1t37 6z" />
    <glyph glyph-name="ordfeminine" unicode="&#xaa;" horiz-adv-x="375" 
d="M366 374h-52l-5 19q-6 -12 -16 -15.5t-29 -3.5h-170q-48 0 -65 17t-17 60v49q0 43 17 60t65 17h182q29 0 29 28q0 20 -8 24l-21 5l-220 -1l-38 -6l5 42h258q45 0 64.5 -16t19.5 -60v-184zM305 442v100h-206q-14 0 -21.5 -5.5t-7.5 -27.5v-67q0 -18 3.5 -25t25.5 -7h177
q16 0 22.5 6t6.5 26z" />
    <glyph glyph-name="guillemotleft" unicode="&#xab;" horiz-adv-x="496" 
d="M424 61h-70l-107 196l107 197h70l-108 -197zM245 61h-70l-107 196l107 197h70l-107 -197z" />
    <glyph glyph-name="minus" unicode="&#xad;" horiz-adv-x="372" 
d="M328 219h-287v76h287v-76z" />
    <glyph glyph-name="registered" unicode="&#xae;" horiz-adv-x="893" 
d="M802 350q0 -148 -104 -249q-52 -51 -114.5 -76t-141.5 -25q-150 0 -255 98.5t-105 251.5q0 149 103.5 249.5t256.5 100.5q148 0 254 -100t106 -250zM722 350q0 125 -79 207t-201 82q-118 0 -198.5 -81.5t-80.5 -207.5q0 -108 65 -189q78 -99 214 -99q119 0 199.5 82
t80.5 206zM611 174h-65l-76 160h-135v-105v-26q0 -14 4 -29h-65q3 20 3 55v241l-3 54h244q43 0 60 -14q18 -12 18 -54v-54q0 -36 -12.5 -52t-52.5 -16q10 -25 18 -44t11 -25q13 -29 31 -59l9 -17zM539 390v77q0 20 -3.5 24t-20.5 5h-180v-134h180q13 0 18.5 5.5t5.5 22.5z
" />
    <glyph glyph-name="macron" unicode="&#xaf;" horiz-adv-x="228" 
d="M276 610h-327v51h327v-51z" />
    <glyph glyph-name="degree" unicode="&#xb0;" horiz-adv-x="447" 
d="M379 544q0 -64 -45.5 -110.5t-112.5 -46.5q-62 0 -110.5 45t-48.5 112q0 66 45 111t114 45q62 0 110 -44.5t48 -111.5zM327 544q0 44 -29 77t-77 33q-44 0 -74.5 -31t-30.5 -79t28.5 -79.5t76.5 -31.5q41 0 73.5 30t32.5 81z" />
    <glyph glyph-name="plusminus" unicode="&#xb1;" horiz-adv-x="670" 
d="M592 276h-218v-157h-84v157h-218v83h218v154h84v-154h218v-83zM592 0h-520v83h520v-83z" />
    <glyph glyph-name="twosuperior" unicode="&#xb2;" horiz-adv-x="445" 
d="M425 563q0 -38 -6 -50q-9 -14 -45 -25l-244 -61q-8 -1 -14.5 -7.5t-8.5 -14.5v-100h229l86 5l-6 -42h-380v164q0 21 10 29.5t49 21.5l245 60q14 3 14 27v29q0 20 -3 25q-6 8 -27 8h-202l-85 -5l5 42h298q44 0 64.5 -15t20.5 -61v-30z" />
    <glyph glyph-name="threesuperior" unicode="&#xb3;" horiz-adv-x="423" 
d="M407 344q0 -40 -19 -59q-19 -17 -68 -17h-290l-6 42l85 -5h197q17 0 23.5 5t6.5 28v81q0 22 -5 27.5t-25 5.5h-93l-84 -4v54l59 -5l25 -1h93q15 0 22.5 6.5t7.5 26.5v70q0 20 -3 25q-6 8 -27 8h-196l-85 -5l6 42h289q46 0 66.5 -15.5t20.5 -60.5v-67q0 -28 -15 -39
q-8 -5 -44 -11q36 0 49 -19q10 -17 10 -52v-61z" />
    <glyph glyph-name="acute" unicode="&#xb4;" horiz-adv-x="250" 
d="M243 722l-154 -153h-55l121 153h88z" />
    <glyph glyph-name="mu" unicode="&#xb5;" horiz-adv-x="683" 
d="M636 0h-92l-6 38q-6 -14 -12 -22q-14 -16 -47 -16h-296l-41 3v-89q0 -71 10 -108h-113q4 19 7 48.5t3 59.5v482l-10 117h103v-406q0 -34 8 -45.5t39 -11.5h298q25 0 36 11t11 46l-1 346l-9 60h103v-395z" />
    <glyph glyph-name="paragraph" unicode="&#xb6;" horiz-adv-x="634" 
d="M546 -186h-87v797h-117v-797h-87v501q-100 0 -162 47.5t-62 125.5q0 90 62.5 135.5t180.5 45.5h272v-855z" />
    <glyph glyph-name="periodcentered" unicode="&#xb7;" horiz-adv-x="372" 
d="M243 257q0 -25 -15.5 -42t-44.5 -17q-22 0 -40.5 15.5t-18.5 43.5q0 25 15.5 42t43.5 17q25 0 42 -17q18 -15 18 -42z" />
    <glyph glyph-name="periodcentered" unicode="&#x2219;" horiz-adv-x="372" 
d="M243 257q0 -25 -15.5 -42t-44.5 -17q-22 0 -40.5 15.5t-18.5 43.5q0 25 15.5 42t43.5 17q25 0 42 -17q18 -15 18 -42z" />
    <glyph glyph-name="cedilla" unicode="&#xb8;" horiz-adv-x="300" 
d="M248 -108q0 -30 -32.5 -52t-82.5 -22h-19l-32 3q-7 1 -21.5 4t-36.5 10l18 27l28 -7l41 -7q33 0 54 11q22 9 22 30q0 14 -18 26q-18 9 -40 9l-49 -7l-16 11l67 72h43l-53 -52l19 4l22 2q36 0 61 -16t25 -46z" />
    <glyph glyph-name="onesuperior" unicode="&#xb9;" horiz-adv-x="216" 
d="M159 268h-92l7 63l3 25v248h-44v30l81 35h35v-313z" />
    <glyph glyph-name="ordmasculine" unicode="&#xba;" horiz-adv-x="375" 
d="M366 451q0 -44 -16.5 -60.5t-67.5 -16.5h-192q-46 0 -64.5 17t-18.5 60v142q0 41 18.5 58.5t64.5 17.5h192q45 0 64.5 -16t19.5 -60v-142zM306 442v159q0 22 -5 27q-3 6 -24 6h-182q-14 0 -21.5 -5.5t-7.5 -27.5v-159q0 -21 3.5 -26.5t25.5 -5.5h182q16 0 22.5 6t6.5 26z
" />
    <glyph glyph-name="guillemotright" unicode="&#xbb;" horiz-adv-x="496" 
d="M422 257l-107 -196h-70l108 196l-108 197h70zM244 257l-107 -196h-70l107 196l-107 197h70z" />
    <glyph glyph-name="onequarter" unicode="&#xbc;" horiz-adv-x="1057" 
d="M938 122h-63v-54q0 -40 11 -68h-87q4 14 7 32t3 36v54h-318v54l310 226h74v-232h63v-48zM731 669l-458 -669h-70l461 669h67zM277 268h-92l7 49l4 39v248h-45v30l81 35h34v-313zM809 170v192l-265 -189z" />
    <glyph glyph-name="onehalf" unicode="&#xbd;" horiz-adv-x="1057" 
d="M958 295q0 -36 -9 -53q-9 -14 -41 -21l-244 -62l-11 -8q-12 -9 -13 -14v-99h230l85 4l-5 -42h-380v164q0 20 11 29.5t48 21.5l245 60q14 3 14 27v29v11q0 11 -5.5 16.5t-24.5 5.5h-203l-84 -4l4 42h299q47 0 65.5 -16.5t18.5 -60.5v-30zM680 669l-459 -669h-70l460 669
h69zM225 268h-92l7 49l4 39v248h-46v30l82 35h35v-313z" />
    <glyph glyph-name="threequarters" unicode="&#xbe;" horiz-adv-x="1057" 
d="M1032 122h-63v-54q0 -40 11 -68h-87l7 26l4 42v54h-319v55l310 225h74v-232h63v-48zM825 669l-458 -669h-70l461 669h67zM407 344q0 -40 -19 -59q-19 -17 -68 -17h-290l-6 42l85 -5h197q17 0 23.5 5t6.5 28v81q0 22 -5 27.5t-25 5.5h-93l-84 -4v54l59 -5l25 -1h93
q18 0 24 6t6 27v70q0 20 -3 25q-6 8 -27 8h-196l-85 -5l6 42h289q46 0 66.5 -15.5t20.5 -60.5v-67q0 -28 -15 -39q-8 -5 -44 -11q36 0 49 -19q10 -17 10 -52v-61zM904 170v192l-266 -189z" />
    <glyph glyph-name="questiondown" unicode="&#xbf;" 
d="M440 420h-112v93h112v-93zM646 -123l-6 -63h-469q-77 0 -105.5 28.5t-28.5 105.5v121q0 54 21 77.5t67 23.5h154q27 0 38 12t11 45v150h112v-194q0 -33 -17 -49q-17 -14 -68 -14h-158q-28 0 -37.5 -9.5t-9.5 -46.5v-142q0 -36 8 -47t39 -11h310z" />
    <glyph glyph-name="Agrave" unicode="&#xc0;" horiz-adv-x="765" 
d="M776 0h-148v13l-3 20l-8 17l-77 164h-377l-58 -118l-25 -57q-6 -18 -6 -39h-93q29 32 51 75l281 581l-37 44h142l324 -650q3 -9 12 -21zM514 271l-164 332l-162 -332h326zM412 725h-57l-150 153h83z" />
    <glyph glyph-name="Aacute" unicode="&#xc1;" horiz-adv-x="765" 
d="M776 0h-148v13l-3 20l-8 17l-77 164h-377l-58 -118l-25 -57q-6 -18 -6 -39h-93q29 32 51 75l281 581l-37 44h142l324 -650q3 -9 12 -21zM514 271l-164 332l-162 -332h326zM526 882l-154 -153h-55l121 153h88z" />
    <glyph glyph-name="Acircumflex" unicode="&#xc2;" horiz-adv-x="765" 
d="M776 0h-148v13l-3 20l-8 17l-77 164h-377l-58 -118l-25 -57q-6 -18 -6 -39h-93q29 32 51 75l281 581l-37 44h142l324 -650q3 -9 12 -21zM514 271l-164 332l-162 -332h326zM509 728h-72l-80 102l-81 -102h-71l114 143h75z" />
    <glyph glyph-name="Atilde" unicode="&#xc3;" horiz-adv-x="765" 
d="M776 0h-148v13l-3 20l-8 17l-77 164h-377l-58 -118l-25 -57q-6 -18 -6 -39h-93q29 32 51 75l281 581l-37 44h142l324 -650q3 -9 12 -21zM514 271l-164 332l-162 -332h326zM514 846q0 -19 -5.5 -33.5t-18.5 -29.5q-25 -31 -66 -31q-4 0 -21 4.5t-44 12.5l-55 18
q-20 0 -29 -5.5t-25 -30.5h-40q3 29 12 44q24 44 84 44q13 0 60.5 -18.5t52.5 -18.5q25 0 36 8.5t18 35.5h41z" />
    <glyph glyph-name="Adieresis" unicode="&#xc4;" horiz-adv-x="765" 
d="M776 0h-148v13l-3 20l-8 17l-77 164h-377l-58 -118l-25 -57q-6 -18 -6 -39h-93q29 32 51 75l281 581l-37 44h142l324 -650q3 -9 12 -21zM514 271l-164 332l-162 -332h326zM471 747h-70v101h70v-101zM309 747h-70v101h70v-101z" />
    <glyph glyph-name="Aring" unicode="&#xc5;" horiz-adv-x="765" 
d="M776 0h-148v13l-3 20l-8 17l-77 164h-377l-58 -118l-25 -57q-6 -18 -6 -39h-93q29 32 51 75l281 581l-37 44h142l324 -650q3 -9 12 -21zM514 271l-164 332l-162 -332h326zM443 804q0 -35 -25 -61.5t-61 -26.5t-61.5 25t-25.5 63q0 35 24.5 61t62.5 26q35 0 60 -26
q26 -24 26 -61zM404 804q0 20 -12.5 34.5t-34.5 14.5q-21 0 -34.5 -13.5t-13.5 -35.5q0 -21 14 -35t34 -14t33.5 12.5t13.5 36.5z" />
    <glyph glyph-name="AE" unicode="&#xc6;" horiz-adv-x="1035" 
d="M1007 65l-6 -65h-546q11 38 11 110v109h-290l-56 -85l-24 -39q-20 -29 -32 -93l-109 -2l41 46l410 621l-58 33h653l6 -64l-54 3l-84 4h-291v-264h260l145 7v-72l-145 7h-260v-265h291q11 0 34 1t36 1q33 0 41 3zM466 276v361l-10 7q-5 -3 -6 -5l-238 -363h254z" />
    <glyph glyph-name="Ccedilla" unicode="&#xc7;" horiz-adv-x="621" 
d="M599 70l-6 -70h-199l-52 -65l15 3l28 4q37 0 61 -20t24 -57q0 -42 -40.5 -67t-89.5 -25l-17 1q-9 0 -55 13l-23 7l18 33l31 -8l39 -9q34 0 54.5 12.5t20.5 38.5q0 19 -17 31.5t-38 12.5h-14l-7 -1l-31 -8l-17 14l69 90h-151q-88 0 -122 26t-34 110v429q0 79 33 107
t123 28h381l7 -71q-8 3 -33 6.5t-61 3.5l-80 4h-209q-30 0 -38.5 -9.5t-8.5 -47.5v-472q0 -36 4 -44q8 -14 43 -14h241h11h47q19 3 27 4q17 0 32 2.5t34 7.5z" />
    <glyph glyph-name="Egrave" unicode="&#xc8;" horiz-adv-x="621" 
d="M598 65l-5 -65h-544q9 41 9 110v481q0 71 -9 109h544l5 -64l-54 3l-84 4h-289v-264h262l145 7v-72l-145 7h-262v-265h289q11 0 36 1t39 1q41 0 63 7zM428 727h-57l-150 153h83z" />
    <glyph glyph-name="Eacute" unicode="&#xc9;" horiz-adv-x="621" 
d="M598 65l-5 -65h-544q9 41 9 110v481q0 71 -9 109h544l5 -64l-54 3l-84 4h-289v-264h262l145 7v-72l-145 7h-262v-265h289q11 0 36 1t39 1q41 0 63 7zM438 880l-154 -153h-55l121 153h88z" />
    <glyph glyph-name="Ecircumflex" unicode="&#xca;" horiz-adv-x="621" 
d="M598 65l-5 -65h-544q9 41 9 110v481q0 71 -9 109h544l5 -64l-54 3l-84 4h-289v-264h262l145 7v-72l-145 7h-262v-265h289q11 0 36 1t39 1q41 0 63 7zM499 730h-72l-80 102l-81 -102h-71l114 143h75z" />
    <glyph glyph-name="Edieresis" unicode="&#xcb;" horiz-adv-x="621" 
d="M598 65l-5 -65h-544q9 41 9 110v481q0 71 -9 109h544l5 -64l-54 3l-84 4h-289v-264h262l145 7v-72l-145 7h-262v-265h289q11 0 36 1t39 1q41 0 63 7zM464 755h-70v101h70v-101zM302 755h-70v101h70v-101z" />
    <glyph glyph-name="Igrave" unicode="&#xcc;" horiz-adv-x="269" 
d="M200 0h-133q4 16 7 45.5t3 64.5v481q0 70 -10 109h133q-10 -43 -10 -109v-481q0 -71 10 -110zM228 742h-57l-150 153h83z" />
    <glyph glyph-name="Iacute" unicode="&#xcd;" horiz-adv-x="269" 
d="M200 0h-133q4 16 7 45.5t3 64.5v481q0 70 -10 109h133q-10 -43 -10 -109v-481q0 -71 10 -110zM243 893l-154 -153h-55l121 153h88z" />
    <glyph glyph-name="Icircumflex" unicode="&#xce;" horiz-adv-x="269" 
d="M200 0h-133q4 16 7 45.5t3 64.5v481q0 70 -10 109h133q-10 -43 -10 -109v-481q0 -71 10 -110zM300 732h-72l-80 102l-81 -102h-71l114 143h75z" />
    <glyph glyph-name="Idieresis" unicode="&#xcf;" horiz-adv-x="269" 
d="M200 0h-133q4 16 7 45.5t3 64.5v481q0 70 -10 109h133q-10 -43 -10 -109v-481q0 -71 10 -110zM251 755h-70v101h70v-101zM89 755h-70v101h70v-101z" />
    <glyph glyph-name="Eth" unicode="&#xd0;" horiz-adv-x="745" 
d="M691 136q0 -78 -32 -107t-124 -29h-486q9 41 9 110v218h-94v57h94v206q0 71 -9 109h486q87 0 121.5 -27.5t34.5 -107.5v-429zM578 114v472q0 36 -5 44q-8 13 -42 13h-360v-258h215v-57h-215v-272h360q27 0 37 11.5t10 46.5z" />
    <glyph glyph-name="Ntilde" unicode="&#xd1;" horiz-adv-x="765" 
d="M711 700l-6 -60q0 -39 -5 -89v-551h-144l-438 621l-2 -503l10 -118h-81q4 9 7 27.5t3 49.5l3 117v341q0 116 -10 165h144l445 -628l4 509l-10 119h80zM555 844q0 -19 -5.5 -33.5t-18.5 -29.5q-25 -31 -66 -31q-4 0 -21 4.5t-44 12.5l-55 18q-20 0 -29 -5.5t-25 -30.5h-40
q3 29 12 44q24 44 84 44q13 0 60.5 -18.5t52.5 -18.5q25 0 36 8.5t18 35.5h41z" />
    <glyph glyph-name="Ograve" unicode="&#xd2;" horiz-adv-x="745" 
d="M691 134q0 -65 -31 -97q-37 -37 -116 -37h-351q-78 0 -112.5 32t-34.5 102v433q0 66 32 98q37 35 115 35h351q77 0 112 -33.5t35 -99.5v-433zM578 114v472q0 36 -5 44q-8 13 -42 13h-324q-30 0 -38.5 -9.5t-8.5 -47.5v-472q0 -36 4 -44q8 -14 43 -14h324q27 0 37 11.5
t10 46.5zM446 727h-57l-150 153h83z" />
    <glyph glyph-name="Oacute" unicode="&#xd3;" horiz-adv-x="745" 
d="M691 134q0 -65 -31 -97q-37 -37 -116 -37h-351q-78 0 -112.5 32t-34.5 102v433q0 66 32 98q37 35 115 35h351q77 0 112 -33.5t35 -99.5v-433zM578 114v472q0 36 -5 44q-8 13 -42 13h-324q-30 0 -38.5 -9.5t-8.5 -47.5v-472q0 -36 4 -44q8 -14 43 -14h324q27 0 37 11.5
t10 46.5zM465 885l-154 -153h-55l121 153h88z" />
    <glyph glyph-name="Ocircumflex" unicode="&#xd4;" horiz-adv-x="745" 
d="M691 134q0 -65 -31 -97q-37 -37 -116 -37h-351q-78 0 -112.5 32t-34.5 102v433q0 66 32 98q37 35 115 35h351q77 0 112 -33.5t35 -99.5v-433zM578 114v472q0 36 -5 44q-8 13 -42 13h-324q-30 0 -38.5 -9.5t-8.5 -47.5v-472q0 -36 4 -44q8 -14 43 -14h324q27 0 37 11.5
t10 46.5zM514 722h-72l-80 102l-81 -102h-71l114 143h75z" />
    <glyph glyph-name="Otilde" unicode="&#xd5;" horiz-adv-x="745" 
d="M691 134q0 -65 -31 -97q-37 -37 -116 -37h-351q-78 0 -112.5 32t-34.5 102v433q0 66 32 98q37 35 115 35h351q77 0 112 -33.5t35 -99.5v-433zM578 114v472q0 36 -5 44q-8 13 -42 13h-324q-30 0 -38.5 -9.5t-8.5 -47.5v-472q0 -36 4 -44q8 -14 43 -14h324q27 0 37 11.5
t10 46.5zM507 846q0 -19 -5.5 -33.5t-18.5 -29.5q-25 -31 -66 -31q-4 0 -21 4.5t-44 12.5l-55 18q-20 0 -29 -5.5t-25 -30.5h-40q3 29 12 44q24 44 84 44q13 0 60.5 -18.5t52.5 -18.5q25 0 36 8.5t18 35.5h41z" />
    <glyph glyph-name="Odieresis" unicode="&#xd6;" horiz-adv-x="745" 
d="M691 134q0 -65 -31 -97q-37 -37 -116 -37h-351q-78 0 -112.5 32t-34.5 102v433q0 66 32 98q37 35 115 35h351q77 0 112 -33.5t35 -99.5v-433zM578 114v472q0 36 -5 44q-8 13 -42 13h-324q-30 0 -38.5 -9.5t-8.5 -47.5v-472q0 -36 4 -44q8 -14 43 -14h324q27 0 37 11.5
t10 46.5zM477 752h-70v101h70v-101zM315 752h-70v101h70v-101z" />
    <glyph glyph-name="multiply" unicode="&#xd7;" horiz-adv-x="634" 
d="M560 56l-58 -56l-188 189l-188 -189l-58 56l190 190l-190 189l58 56l188 -189l188 189l58 -56l-190 -189z" />
    <glyph glyph-name="Oslash" unicode="&#xd8;" horiz-adv-x="745" 
d="M773 803l-113 -140q31 -33 31 -96v-433q0 -65 -31 -97q-37 -37 -116 -37h-351q-39 0 -63 7l-96 -120h-70l117 145q-35 33 -35 102v433q0 66 32 98q37 35 115 35h351q39 0 69 -9l91 112h69zM568 634q-12 9 -37 9h-324q-30 0 -38.5 -9.5t-8.5 -47.5v-456zM578 114v447
l-403 -499l13 -4l19 -2h324q27 0 37 11.5t10 46.5z" />
    <glyph glyph-name="Ugrave" unicode="&#xd9;" horiz-adv-x="745" 
d="M691 700l-6 -60q0 -39 -5 -89v-416q0 -78 -25 -106.5t-98 -28.5h-354q-82 0 -111 25q-34 29 -34 110v456q0 71 -9 109h132q-10 -43 -10 -109v-477q0 -39 6 -48.5t38 -9.5h358q28 0 38 11t10 47v467l-10 119h80zM479 735h-57l-150 153h83z" />
    <glyph glyph-name="Uacute" unicode="&#xda;" horiz-adv-x="745" 
d="M691 700l-6 -60q0 -39 -5 -89v-416q0 -78 -25 -106.5t-98 -28.5h-354q-82 0 -111 25q-34 29 -34 110v456q0 71 -9 109h132q-10 -43 -10 -109v-477q0 -39 6 -48.5t38 -9.5h358q28 0 38 11t10 47v467l-10 119h80zM489 872l-154 -153h-55l121 153h88z" />
    <glyph glyph-name="Ucircumflex" unicode="&#xdb;" horiz-adv-x="745" 
d="M691 700l-6 -60q0 -39 -5 -89v-416q0 -78 -25 -106.5t-98 -28.5h-354q-82 0 -111 25q-34 29 -34 110v456q0 71 -9 109h132q-10 -43 -10 -109v-477q0 -39 6 -48.5t38 -9.5h358q28 0 38 11t10 47v467l-10 119h80zM538 736h-72l-80 102l-81 -102h-71l114 143h75z" />
    <glyph glyph-name="Udieresis" unicode="&#xdc;" horiz-adv-x="745" 
d="M691 700l-6 -60q0 -39 -5 -89v-416q0 -78 -25 -106.5t-98 -28.5h-354q-82 0 -111 25q-34 29 -34 110v456q0 71 -9 109h132q-10 -43 -10 -109v-477q0 -39 6 -48.5t38 -9.5h358q28 0 38 11t10 47v467l-10 119h80zM505 752h-70v101h70v-101zM343 752h-70v101h70v-101z" />
    <glyph glyph-name="Yacute" unicode="&#xdd;" 
d="M674 700l-23 -23l-21 -27l-244 -359v-181q0 -81 8 -110h-132q11 42 11 110v180l-221 313l-71 97h161q6 -41 12.5 -54.5t41.5 -56.5l163 -235l196 294l22 52h97zM473 879l-154 -153h-55l121 153h88z" />
    <glyph glyph-name="Thorn" unicode="&#xde;" horiz-adv-x="723" 
d="M701 267q0 -78 -34 -108q-34 -28 -123 -28h-373v-21q0 -71 10 -110h-132q9 41 9 110v481q0 71 -9 109h132q-10 -43 -10 -109v-22h373q87 0 122 -27.5t35 -108.5v-166zM588 245v210v19q0 20 -7 27q-10 10 -42 10h-368v-323h368q30 0 39.5 11t9.5 46z" />
    <glyph glyph-name="germandbls" unicode="&#xdf;" horiz-adv-x="683" 
d="M636 91q0 -53 -23.5 -72t-86.5 -19h-263v66q13 -4 64 -11l74 -5h96q26 0 36.5 10.5t10.5 46.5v251v14q0 25 -8 33.5t-38 8.5h-239v62h179q28 0 38 12t10 44v61v13q0 23 -7.5 33t-40.5 10h-217q-30 0 -39 -9t-9 -47v-593h-102l9 118v345h-84v50h84v96q0 50 24.5 70.5
t86.5 20.5h277q59 0 84.5 -18.5t25.5 -72.5v-55v-17l1 -15q0 -26 -10.5 -39.5t-46.5 -19.5l84 -15q30 -18 30 -108v-249z" />
    <glyph glyph-name="agrave" unicode="&#xe0;" 
d="M616 0h-89l-9 32q-10 -18 -23 -25t-47 -7h-277q-76 0 -106 27q-28 28 -28 107v78q0 73 27 103t107 30h296q27 0 37 10t10 48v6q0 21 -1.5 29t-6.5 14q-8 11 -39 11h-310q-69 0 -111 -9l9 59h417q78 0 107 -26q29 -24 29 -106v-271q0 -81 8 -110zM514 107v188h-338
q-26 0 -36 -7.5t-10 -49.5v-131q0 -34 8 -45.5t38 -11.5h291q26 0 36.5 10.5t10.5 46.5zM429 580h-57l-150 153h83z" />
    <glyph glyph-name="aacute" unicode="&#xe1;" 
d="M616 0h-89l-9 32q-10 -18 -23 -25t-47 -7h-277q-76 0 -106 27q-28 28 -28 107v78q0 73 27 103t107 30h296q27 0 37 10t10 48v6q0 21 -1.5 29t-6.5 14q-8 11 -39 11h-310q-69 0 -111 -9l9 59h417q78 0 107 -26q29 -24 29 -106v-271q0 -81 8 -110zM514 107v188h-338
q-26 0 -36 -7.5t-10 -49.5v-131q0 -34 8 -45.5t38 -11.5h291q26 0 36.5 10.5t10.5 46.5zM436 721l-154 -153h-55l121 153h88z" />
    <glyph glyph-name="acircumflex" unicode="&#xe2;" 
d="M616 0h-89l-9 32q-10 -18 -23 -25t-47 -7h-277q-76 0 -106 27q-28 28 -28 107v78q0 73 27 103t107 30h296q27 0 37 10t10 48v6q0 21 -1.5 29t-6.5 14q-8 11 -39 11h-310q-69 0 -111 -9l9 59h417q78 0 107 -26q29 -24 29 -106v-271q0 -81 8 -110zM514 107v188h-338
q-26 0 -36 -7.5t-10 -49.5v-131q0 -34 8 -45.5t38 -11.5h291q26 0 36.5 10.5t10.5 46.5zM473 575h-72l-80 102l-81 -102h-71l114 143h75z" />
    <glyph glyph-name="atilde" unicode="&#xe3;" 
d="M616 0h-89l-9 32q-10 -18 -23 -25t-47 -7h-277q-76 0 -106 27q-28 28 -28 107v78q0 73 27 103t107 30h296q27 0 37 10t10 48v6q0 21 -1.5 29t-6.5 14q-8 11 -39 11h-310q-69 0 -111 -9l9 59h417q78 0 107 -26q29 -24 29 -106v-271q0 -81 8 -110zM514 107v188h-338
q-26 0 -36 -7.5t-10 -49.5v-131q0 -34 8 -45.5t38 -11.5h291q26 0 36.5 10.5t10.5 46.5zM466 686q0 -19 -5.5 -33.5t-18.5 -29.5q-25 -31 -66 -31q-4 0 -21 4.5t-44 12.5l-55 18q-20 0 -29 -5.5t-25 -30.5h-40q3 29 12 44q24 44 84 44q13 0 60.5 -18.5t52.5 -18.5
q25 0 36 8.5t18 35.5h41z" />
    <glyph glyph-name="adieresis" unicode="&#xe4;" 
d="M616 0h-89l-9 32q-10 -18 -23 -25t-47 -7h-277q-76 0 -106 27q-28 28 -28 107v78q0 73 27 103t107 30h296q27 0 37 10t10 48v6q0 21 -1.5 29t-6.5 14q-8 11 -39 11h-310q-69 0 -111 -9l9 59h417q78 0 107 -26q29 -24 29 -106v-271q0 -81 8 -110zM514 107v188h-338
q-26 0 -36 -7.5t-10 -49.5v-131q0 -34 8 -45.5t38 -11.5h291q26 0 36.5 10.5t10.5 46.5zM438 591h-70v101h70v-101zM276 591h-70v101h70v-101z" />
    <glyph glyph-name="aring" unicode="&#xe5;" 
d="M616 0h-89l-9 32q-10 -18 -23 -25t-47 -7h-277q-76 0 -106 27q-28 28 -28 107v78q0 73 27 103t107 30h296q27 0 37 10t10 48v6q0 21 -1.5 29t-6.5 14q-8 11 -39 11h-310q-69 0 -111 -9l9 59h417q78 0 107 -26q29 -24 29 -106v-271q0 -81 8 -110zM514 107v188h-338
q-26 0 -36 -7.5t-10 -49.5v-131q0 -34 8 -45.5t38 -11.5h291q26 0 36.5 10.5t10.5 46.5zM395 645q0 -35 -25 -61.5t-61 -26.5t-61.5 25t-25.5 63q0 35 24.5 61t62.5 26q35 0 60 -26q26 -24 26 -61zM356 645q0 20 -12.5 34.5t-34.5 14.5q-21 0 -34.5 -13.5t-13.5 -35.5
q0 -21 14 -35t34 -14t33.5 12.5t13.5 36.5z" />
    <glyph glyph-name="ae" unicode="&#xe6;" horiz-adv-x="1117" 
d="M1077 61l-12 -61h-486q-36 0 -57 30q-21 -30 -57 -30h-294q-76 0 -106 27q-28 28 -28 107v78q0 73 27 103t107 30h280q27 0 37 12t10 46v6v13v13q0 6 -2 12q-6 16 -45 16h-294q-69 0 -111 -9l9 59h884q76 0 106 -27t30 -105v-156h-483v-118q0 -34 8.5 -45.5t37.5 -11.5
h328q75 0 111 11zM982 276v131v20q0 20 -8 28t-39 8h-297q-26 0 -36 -9t-10 -47v-131h390zM498 107v188h-322q-26 0 -36 -7.5t-10 -49.5v-131q0 -34 8 -45.5t38 -11.5h275q27 0 37 11.5t10 45.5z" />
    <glyph glyph-name="ccedilla" unicode="&#xe7;" horiz-adv-x="599" 
d="M579 61l-7 -61h-215l-52 -65l15 3l27 4q37 0 61 -19.5t24 -57.5q0 -40 -32.5 -66t-83.5 -26q-50 0 -70 6l-38 15l17 33l29 -8q33 -9 41 -9q34 0 55 13t21 38q0 18 -18 32q-18 12 -40 12l-49 -9l-16 14l67 90h-132q-75 0 -104.5 27t-29.5 107v247q0 74 27 103t107 29h381
l5 -59q-41 9 -111 9h-269q-27 0 -37 -9.5t-10 -46.5v-300q0 -34 8 -45.5t39 -11.5h280q76 0 110 11z" />
    <glyph glyph-name="egrave" unicode="&#xe8;" 
d="M618 61l-10 -61h-437q-76 0 -106 27q-28 28 -28 107v247q0 72 27 102t107 30h314q75 0 104 -27.5t29 -104.5v-156h-488v-118q0 -34 8 -45.5t38 -11.5h332q76 0 110 11zM526 276v131v16q0 22 -6 30q-10 10 -41 10h-303q-27 0 -36.5 -8.5t-9.5 -47.5v-131h396zM411 566h-57
l-150 153h83z" />
    <glyph glyph-name="eacute" unicode="&#xe9;" 
d="M618 61l-10 -61h-437q-76 0 -106 27q-28 28 -28 107v247q0 72 27 102t107 30h314q75 0 104 -27.5t29 -104.5v-156h-488v-118q0 -34 8 -45.5t38 -11.5h332q76 0 110 11zM526 276v131v16q0 22 -6 30q-10 10 -41 10h-303q-27 0 -36.5 -8.5t-9.5 -47.5v-131h396zM413 721
l-154 -153h-55l121 153h88z" />
    <glyph glyph-name="ecircumflex" unicode="&#xea;" 
d="M618 61l-10 -61h-437q-76 0 -106 27q-28 28 -28 107v247q0 72 27 102t107 30h314q75 0 104 -27.5t29 -104.5v-156h-488v-118q0 -34 8 -45.5t38 -11.5h332q76 0 110 11zM526 276v131v16q0 22 -6 30q-10 10 -41 10h-303q-27 0 -36.5 -8.5t-9.5 -47.5v-131h396zM458 576h-72
l-80 102l-81 -102h-71l114 143h75z" />
    <glyph glyph-name="edieresis" unicode="&#xeb;" 
d="M618 61l-10 -61h-437q-76 0 -106 27q-28 28 -28 107v247q0 72 27 102t107 30h314q75 0 104 -27.5t29 -104.5v-156h-488v-118q0 -34 8 -45.5t38 -11.5h332q76 0 110 11zM526 276v131v16q0 22 -6 30q-10 10 -41 10h-303q-27 0 -36.5 -8.5t-9.5 -47.5v-131h396zM430 594h-70
v101h70v-101zM268 594h-70v101h70v-101z" />
    <glyph glyph-name="igrave" unicode="&#xec;" horiz-adv-x="228" 
d="M169 0h-113q4 19 7 48.5t3 61.5v295q0 65 -10 108h104v-403q0 -72 9 -110zM198 562h-57l-150 153h83z" />
    <glyph glyph-name="iacute" unicode="&#xed;" horiz-adv-x="228" 
d="M169 0h-113q4 19 7 48.5t3 61.5v295q0 65 -10 108h104v-403q0 -72 9 -110zM216 702l-154 -153h-55l121 153h88z" />
    <glyph glyph-name="icircumflex" unicode="&#xee;" horiz-adv-x="228" 
d="M169 0h-113q4 19 7 48.5t3 61.5v295q0 65 -10 108h104v-403q0 -72 9 -110zM263 573h-72l-80 102l-81 -102h-71l114 143h75z" />
    <glyph glyph-name="idieresis" unicode="&#xef;" horiz-adv-x="228" 
d="M169 0h-113q4 19 7 48.5t3 61.5v295q0 65 -10 108h104v-403q0 -72 9 -110zM224 590h-70v101h70v-101zM62 590h-70v101h70v-101z" />
    <glyph glyph-name="eth" unicode="&#xf0;" 
d="M618 134q0 -76 -27.5 -105t-105.5 -29h-314q-77 0 -105.5 28t-28.5 106v146q0 75 28.5 104t105.5 29h314l25 -2l16 -3v63q0 21 -10 32l-15 12l-21 12l-97 42l-112 -70l-48 32l100 64l-152 66l66 39l150 -66l105 66l48 -33l-93 -59l125 -55q33 -12 39.5 -24t6.5 -32v-363z
M526 107v199q0 33 -9 45q-6 12 -38 12h-303q-27 0 -38 -12q-8 -11 -8 -45v-199q0 -34 8 -45.5t38 -11.5h303q17 0 23.5 2.5t15 12t8.5 42.5z" />
    <glyph glyph-name="ntilde" unicode="&#xf1;" 
d="M636 0h-112q4 16 7 45.5t3 64.5v297v13q0 23 -7.5 33t-39.5 10h-298q-27 0 -37 -9.5t-10 -46.5v-297q0 -71 10 -110h-113q4 19 7 48.5t3 61.5v295q0 65 -10 108h107v-36l21 26q12 10 38 10h287q76 0 105.5 -27t29.5 -105v-271q0 -68 9 -110zM496 685q0 -19 -5.5 -33.5
t-18.5 -29.5q-25 -31 -66 -31q-4 0 -21 4.5t-44 12.5l-55 18q-20 0 -29 -5.5t-25 -30.5h-40q3 29 12 44q24 44 84 44q13 0 60.5 -18.5t52.5 -18.5q25 0 36 8.5t18 35.5h41z" />
    <glyph glyph-name="ograve" unicode="&#xf2;" 
d="M618 134q0 -73 -27.5 -103.5t-105.5 -30.5h-314q-76 0 -106 27q-28 28 -28 107v247q0 72 27 102t107 30h314q75 0 104 -27.5t29 -104.5v-247zM526 107v300v16q0 22 -6 30q-10 10 -41 10h-303q-27 0 -36.5 -8.5t-9.5 -47.5v-300q0 -34 8 -45.5t38 -11.5h303q25 0 36 11
t11 46zM410 557h-57l-150 153h83z" />
    <glyph glyph-name="oacute" unicode="&#xf3;" 
d="M618 134q0 -73 -27.5 -103.5t-105.5 -30.5h-314q-76 0 -106 27q-28 28 -28 107v247q0 72 27 102t107 30h314q75 0 104 -27.5t29 -104.5v-247zM526 107v300v16q0 22 -6 30q-10 10 -41 10h-303q-27 0 -36.5 -8.5t-9.5 -47.5v-300q0 -34 8 -45.5t38 -11.5h303q25 0 36 11
t11 46zM422 715l-154 -153h-55l121 153h88z" />
    <glyph glyph-name="ocircumflex" unicode="&#xf4;" 
d="M618 134q0 -73 -27.5 -103.5t-105.5 -30.5h-314q-76 0 -106 27q-28 28 -28 107v247q0 72 27 102t107 30h314q75 0 104 -27.5t29 -104.5v-247zM526 107v300v16q0 22 -6 30q-10 10 -41 10h-303q-27 0 -36.5 -8.5t-9.5 -47.5v-300q0 -34 8 -45.5t38 -11.5h303q25 0 36 11
t11 46zM467 576h-72l-80 102l-81 -102h-71l114 143h75z" />
    <glyph glyph-name="otilde" unicode="&#xf5;" 
d="M618 134q0 -73 -27.5 -103.5t-105.5 -30.5h-314q-76 0 -106 27q-28 28 -28 107v247q0 72 27 102t107 30h314q75 0 104 -27.5t29 -104.5v-247zM526 107v300v16q0 22 -6 30q-10 10 -41 10h-303q-27 0 -36.5 -8.5t-9.5 -47.5v-300q0 -34 8 -45.5t38 -11.5h303q25 0 36 11
t11 46zM469 688q0 -19 -5.5 -33.5t-18.5 -29.5q-25 -31 -66 -31q-4 0 -21 4.5t-44 12.5l-55 18q-20 0 -29 -5.5t-25 -30.5h-40q3 29 12 44q24 44 84 44q13 0 60.5 -18.5t52.5 -18.5q25 0 36 8.5t18 35.5h41z" />
    <glyph glyph-name="odieresis" unicode="&#xf6;" 
d="M618 134q0 -73 -27.5 -103.5t-105.5 -30.5h-314q-76 0 -106 27q-28 28 -28 107v247q0 72 27 102t107 30h314q75 0 104 -27.5t29 -104.5v-247zM526 107v300v16q0 22 -6 30q-10 10 -41 10h-303q-27 0 -36.5 -8.5t-9.5 -47.5v-300q0 -34 8 -45.5t38 -11.5h303q25 0 36 11
t11 46zM443 600h-70v101h70v-101zM281 600h-70v101h70v-101z" />
    <glyph glyph-name="divide" unicode="&#xf7;" horiz-adv-x="634" 
d="M384 447q0 -28 -18.5 -49.5t-51.5 -21.5q-26 0 -48 21t-22 50q0 27 18.5 48.5t51.5 21.5q29 0 49 -20q21 -18 21 -50zM560 206h-492v79h492v-79zM384 45q0 -29 -20 -49q-18 -21 -50 -21q-28 0 -49 20q-21 18 -21 50q0 28 18 49t52 21q29 0 49.5 -18t20.5 -52z" />
    <glyph glyph-name="oslash" unicode="&#xf8;" 
d="M672 622l-103 -123q49 -25 49 -118v-247q0 -73 -27.5 -103.5t-105.5 -30.5h-314l-23 1l-95 -114h-70l106 125q-27 12 -39.5 40t-12.5 82v247q0 72 27 102t107 30h314l25 -1l93 110h69zM526 107v300v17q0 15 -3 21l-333 -395h289q25 0 36 11t11 46zM469 463h-293
q-27 0 -36.5 -8.5t-9.5 -47.5v-300q0 -30 5 -40z" />
    <glyph glyph-name="ugrave" unicode="&#xf9;" horiz-adv-x="683" 
d="M636 0h-92l-6 38q-6 -14 -12 -22q-14 -16 -47 -16h-296q-75 0 -104.5 27t-29.5 107v271q0 65 -10 108h103v-406q0 -34 8 -45.5t39 -11.5h298q25 0 36 11t11 46v298q0 71 -10 108h103v-403q0 -68 9 -110zM423 563h-57l-150 153h83z" />
    <glyph glyph-name="uacute" unicode="&#xfa;" horiz-adv-x="683" 
d="M636 0h-92l-6 38q-6 -14 -12 -22q-14 -16 -47 -16h-296q-75 0 -104.5 27t-29.5 107v271q0 65 -10 108h103v-406q0 -34 8 -45.5t39 -11.5h298q25 0 36 11t11 46v298q0 71 -10 108h103v-403q0 -68 9 -110zM437 728l-154 -153h-55l121 153h88z" />
    <glyph glyph-name="ucircumflex" unicode="&#xfb;" horiz-adv-x="683" 
d="M636 0h-92l-6 38q-6 -14 -12 -22q-14 -16 -47 -16h-296q-75 0 -104.5 27t-29.5 107v271q0 65 -10 108h103v-406q0 -34 8 -45.5t39 -11.5h298q25 0 36 11t11 46v298q0 71 -10 108h103v-403q0 -68 9 -110zM482 579h-72l-80 102l-81 -102h-71l114 143h75z" />
    <glyph glyph-name="udieresis" unicode="&#xfc;" horiz-adv-x="683" 
d="M636 0h-92l-6 38q-6 -14 -12 -22q-14 -16 -47 -16h-296q-75 0 -104.5 27t-29.5 107v271q0 65 -10 108h103v-406q0 -34 8 -45.5t39 -11.5h298q25 0 36 11t11 46v298q0 71 -10 108h103v-403q0 -68 9 -110zM447 601h-70v101h70v-101zM285 601h-70v101h70v-101z" />
    <glyph glyph-name="yacute" unicode="&#xfd;" horiz-adv-x="683" 
d="M626 -62q0 -74 -27.5 -103t-107.5 -29h-429l-7 59q38 -9 110 -9h321q27 0 37 10.5t10 45.5v105q-14 -17 -47 -17h-303q-77 0 -105.5 28t-28.5 106v271q0 65 -10 108h103v-406q0 -34 8 -45.5t39 -11.5h297q26 0 36.5 10.5t10.5 46.5v298q0 65 -10 108h103v-575zM453 710
l-154 -153h-55l121 153h88z" />
    <glyph glyph-name="thorn" unicode="&#xfe;" 
d="M618 134q0 -75 -26.5 -104.5t-103.5 -29.5h-272q-31 0 -48.5 8.5t-23.5 26.5l-2 -121q0 -71 10 -108h-113q4 19 7 48.5t3 59.5v677q0 63 -10 109h103v-230q6 43 68 43h271q77 0 107 -27t30 -105v-247zM526 107v300v16q0 22 -6 30q-10 10 -41 10h-290q-27 0 -37 -9.5
t-10 -46.5v-300q0 -34 8 -45.5t39 -11.5h290q25 0 36 11t11 46z" />
    <glyph glyph-name="ydieresis" unicode="&#xff;" horiz-adv-x="683" 
d="M626 -62q0 -74 -27.5 -103t-107.5 -29h-429l-7 59q38 -9 110 -9h321q27 0 37 10.5t10 45.5v105q-14 -17 -47 -17h-303q-77 0 -105.5 28t-28.5 106v271q0 65 -10 108h103v-406q0 -34 8 -45.5t39 -11.5h297q26 0 36.5 10.5t10.5 46.5v298q0 65 -10 108h103v-575zM454 596
h-70v101h70v-101zM292 596h-70v101h70v-101z" />
    <glyph glyph-name="breve" unicode="&#x2d8;" horiz-adv-x="228" 
d="M273 714q-8 -55 -40.5 -97t-126.5 -42q-75 0 -109 42t-43 97h44q0 -11 1 -16t7 -16t21 -30q30 -27 86 -27q61 0 84 23q20 24 33 66h43z" />
    <glyph glyph-name="dotaccent" unicode="&#x2d9;" horiz-adv-x="228" 
d="M149 579h-72v101h72v-101z" />
    <glyph glyph-name="dotlessi" unicode="&#x131;" horiz-adv-x="228" 
d="M169 0h-113q4 19 7 48.5t3 61.5v295q0 65 -10 108h104v-403q0 -72 9 -110z" />
    <glyph glyph-name="ring" unicode="&#x2da;" horiz-adv-x="228" 
d="M228 685q0 -45 -34 -79.5t-81 -34.5q-49 0 -82 32t-33 82q0 44 33.5 78.5t81.5 34.5q45 0 80 -33.5t35 -79.5zM176 685q0 26 -16.5 44.5t-46.5 18.5q-26 0 -42.5 -15.5t-21.5 -47.5q0 -28 17.5 -46t46.5 -18q25 0 44 16.5t19 47.5z" />
    <glyph glyph-name="ogonek" unicode="&#x2db;" horiz-adv-x="228" 
d="M308 -168q-19 -12 -41 -23.5t-40.5 -20.5t-39 -13.5t-36.5 -4.5q-44 0 -79 24q-16 13 -24 30t-8 38q0 69 69.5 101t171.5 58v-11q-36 -12 -66 -27q-6 -3 -28 -15q-14 -8 -27 -16q-45 -30 -45 -82q0 -49 57 -49q27 0 48 9q13 4 22.5 8t20.5 12l29 14z" />
    <glyph glyph-name="caron" unicode="&#x2c7;" horiz-adv-x="228" 
d="M275 722l-125 -153h-75l-124 153h71l91 -113l90 113h72z" />
    <glyph glyph-name="Lslash" unicode="&#x141;" horiz-adv-x="641" 
d="M632 65l-6 -65h-570q4 19 7 48.5t3 61.5v168l-100 -44v57l100 44v256q0 63 -10 109h133q-10 -43 -10 -109v-207l261 115v-58l-261 -114v-271h316q10 0 34 1t38 1q38 0 65 7z" />
    <glyph glyph-name="lslash" unicode="&#x142;" horiz-adv-x="228" 
d="M250 414l-90 -45v-259q0 -72 9 -110h-113q4 19 7 48.5t3 61.5v212l-90 -45v50l90 46v218q0 63 -10 109h104v-280l90 45v-51z" />
    <glyph glyph-name="fraction" unicode="&#x2215;" horiz-adv-x="176" 
d="M350 669l-459 -669h-65l459 669h65z" />
    <glyph glyph-name="fi" unicode="&#xf001;" horiz-adv-x="641" 
d="M574 577h-93v74h93v-74zM584 0h-113q4 16 7 45.5t3 64.5v295q0 71 -10 108h103v-403q0 -71 10 -110zM453 640q-39 9 -111 9h-114q-26 0 -38 -13q-10 -13 -10 -43v-80h248v-50h-248v-345l10 -118h-113l10 118v345h-84v50h84v54q0 75 29 104t106 29h223z" />
    <glyph glyph-name="fl" unicode="&#xf002;" horiz-adv-x="641" 
d="M584 0h-113q4 16 7 45.5t3 64.5v481q0 70 -10 109h103v-590q0 -71 10 -110zM453 640q-39 9 -111 9h-114q-26 0 -38 -13q-10 -13 -10 -43v-80h248v-50h-248v-345l10 -118h-113l10 118v345h-84v50h84v54q0 75 29 104t106 29h223z" />
    <glyph glyph-name="Zcaron" unicode="&#x17d;" 
d="M657 700l-468 -644h307q11 0 35.5 1t38.5 1q41 0 63 7l-8 -65h-606l468 643h-288l-139 -7l10 64h587zM504 878l-125 -153h-75l-124 153h71l91 -113l90 113h72z" />
    <glyph glyph-name="zcaron" unicode="&#x17e;" horiz-adv-x="621" 
d="M598 61l-5 -61h-576l419 463h-294q-69 0 -110 -9l7 59h556l-419 -463h311q75 0 111 11zM466 720l-125 -153h-75l-124 153h71l91 -113l90 113h72z" />
    </font>
</defs>
</svg>
